<svg width="14" height="16" viewBox="0 0 14 16" fill="none" xmlns="http://www.w3.org/2000/svg">
<path d="M13.5171 12.2827C13.2852 12.8184 13.0107 13.3115 12.6927 13.7648C12.2592 14.3829 11.9043 14.8107 11.6308 15.0483C11.2067 15.4382 10.7524 15.6379 10.2659 15.6493C9.91669 15.6493 9.49551 15.5499 9.00524 15.3483C8.51335 15.1476 8.06132 15.0483 7.64799 15.0483C7.21451 15.0483 6.7496 15.1476 6.25233 15.3483C5.75429 15.5499 5.35308 15.6549 5.04633 15.6654C4.57981 15.6852 4.11481 15.4798 3.65066 15.0483C3.35441 14.7899 2.98387 14.3469 2.53997 13.7194C2.06371 13.0493 1.67215 12.2722 1.3654 11.3863C1.03688 10.4295 0.872192 9.50287 0.872192 8.6058C0.872192 7.57821 1.09424 6.69194 1.53898 5.94924C1.88852 5.35268 2.35352 4.88209 2.9355 4.53663C3.51749 4.19117 4.14633 4.01512 4.82353 4.00386C5.19407 4.00386 5.67999 4.11848 6.28384 4.34374C6.88599 4.56976 7.27262 4.68437 7.44214 4.68437C7.56887 4.68437 7.99838 4.55035 8.7265 4.28316C9.41506 4.03538 9.99619 3.93278 10.4723 3.9732C11.7623 4.07731 12.7315 4.58585 13.3761 5.50203C12.2223 6.2011 11.6516 7.18022 11.6629 8.43629C11.6733 9.41465 12.0283 10.2288 12.7258 10.8753C13.0419 11.1753 13.395 11.4072 13.7878 11.5719C13.7026 11.8189 13.6127 12.0555 13.5171 12.2827ZM10.5584 0.640097C10.5584 1.40694 10.2782 2.12294 9.71982 2.78566C9.04594 3.5735 8.23083 4.02875 7.34692 3.95692C7.33566 3.86492 7.32913 3.76809 7.32913 3.66635C7.32913 2.93018 7.6496 2.14234 8.21872 1.49817C8.50285 1.17201 8.86421 0.900822 9.30243 0.684486C9.7397 0.471379 10.1533 0.353525 10.5423 0.333344C10.5537 0.435858 10.5584 0.538379 10.5584 0.640087V0.640097Z" fill="#808080"/>
</svg>
