<svg width="18" height="18" viewBox="0 0 18 18" fill="none" xmlns="http://www.w3.org/2000/svg">
<path fill-rule="evenodd" clip-rule="evenodd" d="M8.98644 2.41433C8.19142 1.82864 7.10728 1.27579 5.85779 1.07613C4.11859 0.798214 2.13129 1.22059 0.299494 3.01865C0.107924 3.20669 0 3.46386 0 3.7323V3.74845V3.76468V3.781V3.79741V3.81391V3.83049V3.84715V3.8639V3.88074V3.89766V3.91467V3.93176V3.94893V3.96619V3.98353V4.00095V4.01845V4.03604V4.05371V4.07146V4.08929V4.1072V4.12519V4.14326V4.16141V4.17964V4.19795V4.21634V4.2348V4.25335V4.27197V4.29067V4.30944V4.32829V4.34722V4.36623V4.38531V4.40446V4.42369V4.443V4.46238V4.48183V4.50136V4.52096V4.54063V4.56037V4.58019V4.60008V4.62004V4.64008V4.66018V4.68035V4.7006V4.72091V4.7413V4.76175V4.78227V4.80286V4.82352V4.84425V4.86504V4.88591V4.90684V4.92783V4.94889V4.97002V4.99121V5.01247V5.0338V5.05518V5.07664V5.09815V5.11973V5.14138V5.16308V5.18485V5.20668V5.22858V5.25053V5.27255V5.29462V5.31676V5.33896V5.36122V5.38353V5.40591V5.42835V5.45084V5.47339V5.496V5.51867V5.5414V5.56418V5.58702V5.60991V5.63286V5.65587V5.67893V5.70205V5.72522V5.74845V5.77173V5.79506V5.81845V5.84189V5.86538V5.88892V5.91252V5.93617V5.95987V5.98362V6.00742V6.03127V6.05517V6.07912V6.10312V6.12717V6.15126V6.17541V6.1996V6.22384V6.24813V6.27247V6.29685V6.32128V6.34575V6.37027V6.39484V6.41945V6.4441V6.4688V6.49354V6.51833V6.54316V6.56803V6.59295V6.6179V6.6429V6.66794V6.69303V6.71815V6.74331V6.76852V6.79376V6.81905V6.84437V6.86973V6.89513V6.92057V6.94605V6.97156V6.99711V7.0227V7.04832V7.07399V7.09968V7.12542V7.15118V7.17699V7.20282V7.2287V7.2546V7.28054V7.30651V7.33252V7.35856V7.38463V7.41073V7.43686V7.46303V7.48922V7.51545V7.54171V7.568V7.59431V7.62066V7.64703V7.67343V7.69987V7.72633V7.75281V7.77933V7.80587V7.83244V7.85903V7.88565V7.9123V7.93897V7.96566V7.99238V8.01913V8.0459V8.07269V8.0995V8.12634V8.1532V8.18008V8.20699V8.23392V8.26086V8.28783V8.31482V8.34183V8.36886V8.39591V8.42298V8.45007V8.47717V8.5043V8.53144V8.5586V8.58578V8.61297V8.64018V8.66741V8.69465V8.72191V8.74918V8.77647V8.80377V8.83109V8.85842V8.88577V8.91312V8.94049V8.96788V8.99527V9.02268V9.0501V9.07753V9.10497V9.13242V9.15989V9.18736V9.21484V9.24233V9.26983V9.29734V9.32486V9.35238V9.37991V9.40745V9.435V9.46255V9.49011V9.51768V9.54525V9.57282V9.6004V9.62799V9.65558V9.68317V9.71077V9.73837V9.76597V9.79358V9.82119V9.8488V9.87641V9.90402V9.93164V9.95925V9.98687V10.0145V10.0421V10.0697V10.0973V10.1249V10.1525V10.1801V10.2078V10.2354V10.263V10.2905V10.3181V10.3457V10.3733V10.4009V10.4285V10.456V10.4836V10.5111V10.5387V10.5662V10.5938V10.6213V10.6488V10.6763V10.7038V10.7313V10.7588V10.7863V10.8138V10.8412V10.8687V10.8961V10.9235V10.9509V10.9783V11.0057V11.0331V11.0605V11.0878V11.1152V11.1425V11.1698V11.1971V11.2244V11.2516V11.2789V11.3061V11.3333V11.3605V11.3877V11.4149V11.442V11.4692V11.4963V11.5234V11.5505V11.5775V11.6046V11.6316V11.6586V11.6856V11.7125V11.7395V11.7664V11.7933V11.8201V11.847V11.8738V11.9006V11.9274V11.9542V11.9809V12.0076V12.0343V12.0609V12.0876V12.1142V12.1408V12.1673V12.1938V12.2203V12.2468V12.2733V12.2997V12.3261V12.3524V12.3787V12.405V12.4313V12.4576V12.4838V12.51V12.5361V12.5622V12.5883V12.6144V12.6404V12.6664V12.6923V12.7182V12.7441V12.77V12.7958V12.8216V12.8473V12.8731V12.8987V12.9244V12.95V12.9755V13.0011V13.0266V13.052V13.0774V13.1028V13.1282V13.1535V13.1787V13.204V13.2291V13.2543V13.2794V13.3044V13.3295V13.3544V13.3794V13.4043V13.4291V13.4539V13.4787V13.5034V13.5281V13.5527V13.5773V13.6018V13.6263V13.6508V13.6752V13.6996V13.7239V13.7481V13.7723V13.7965V13.8206V13.8447V13.8687V13.8927V13.9166V13.9405V13.9643V13.9881V14.0118V14.0355V14.0591V14.0827V14.1062V14.1297V14.1531V14.1764V14.1997V14.223V14.2462V14.2693V14.2924V14.3155V14.3384V14.3614V14.3842V14.407V14.4298V14.4525V14.4751V14.4977V14.5202V14.5427V14.5651V14.5874V14.6097V14.6319V14.6541V14.6762V14.6983V14.7202V14.7422V14.764V14.7858V14.8076V14.8292V14.8509V14.8724V14.8939V14.9153V14.9367V14.9579V14.9792V15.0003V15.0214V15.0424V15.0634V15.0843V15.1051V15.1259V15.1466V15.1672V15.1878V15.2082V15.2287V15.249V15.2693V15.2895V15.3096V15.3297V15.3497V15.3696V15.3895V15.4093V15.429V15.4486V15.4682V15.4876V15.5071V15.5264V15.5457V15.5649V15.584V15.603V15.622V15.6409V15.6597V15.6784V15.6971V15.7157V15.7342V15.7526V15.7709V15.7892V15.8074V15.8255V15.8435V15.8615V15.8793V15.8971V15.9148V15.9325V15.95V15.9675V15.9848V16.0021C0 16.3642 0.195677 16.6979 0.511595 16.8748C0.827513 17.0516 1.21433 17.0438 1.52292 16.8545C2.67868 16.1455 5.71965 15.1629 8.47708 16.8545C8.78567 17.0438 9.17249 17.0516 9.48841 16.8748C9.5159 16.8594 9.54248 16.8428 9.5681 16.8251C10.7564 16.1189 13.755 15.1829 16.4772 16.8525C16.7858 17.0417 17.1726 17.0494 17.4885 16.8726C17.8043 16.6958 18 16.362 18 16V3.73383C18 3.46534 17.892 3.20813 17.7004 3.02008C16.9191 2.25342 15.5379 1.34655 13.8577 1.07815C12.334 0.834742 10.6197 1.12871 8.98644 2.41433ZM10 4.17069V4.18104V4.19935V4.21773V4.23619V4.25473V4.27334V4.29203V4.3108V4.32965V4.34857V4.36757V4.38665V4.4058V4.42502V4.44432V4.46369V4.48314V4.50266V4.52225V4.54192V4.56166V4.58147V4.60136V4.62131V4.64134V4.66144V4.68161V4.70184V4.72215V4.74253V4.76298V4.78349V4.80408V4.82473V4.84545V4.86624V4.8871V4.90802V4.92901V4.95006V4.97118V4.99237V5.01362V5.03494V5.05632V5.07777V5.09928V5.12085V5.14249V5.16419V5.18595V5.20778V5.22966V5.25161V5.27362V5.29569V5.31782V5.34001V5.36226V5.38457V5.40695V5.42937V5.45186V5.47441V5.49701V5.51967V5.54239V5.56517V5.588V5.61089V5.63383V5.65683V5.67988V5.703V5.72616V5.74938V5.77265V5.79598V5.81936V5.84279V5.86627V5.88981V5.9134V5.93704V5.96073V5.98448V6.00827V6.03211V6.05601V6.07995V6.10394V6.12799V6.15208V6.17621V6.2004V6.22463V6.24892V6.27324V6.29762V6.32204V6.34651V6.37102V6.39558V6.42018V6.44483V6.46952V6.49425V6.51903V6.54385V6.56872V6.59363V6.61858V6.64357V6.6686V6.69368V6.71879V6.74395V6.76915V6.79438V6.81966V6.84497V6.87033V6.89572V6.92115V6.94662V6.97213V6.99767V7.02325V7.04887V7.07452V7.10021V7.12594V7.1517V7.17749V7.20332V7.22919V7.25508V7.28101V7.30698V7.33298V7.35901V7.38507V7.41116V7.43729V7.46345V7.48964V7.51585V7.5421V7.56838V7.59469V7.62103V7.6474V7.67379V7.70021V7.72667V7.75315V7.77965V7.80618V7.83274V7.85933V7.88594V7.91258V7.93924V7.96593V7.99264V8.01938V8.04614V8.07292V8.09973V8.12656V8.15341V8.18029V8.20719V8.23411V8.26104V8.28801V8.31499V8.34199V8.36901V8.39605V8.42311V8.45019V8.47729V8.5044V8.53154V8.55869V8.58586V8.61304V8.64025V8.66747V8.6947V8.72195V8.74922V8.7765V8.80379V8.8311V8.85842V8.88576V8.91311V8.94047V8.96785V8.99523V9.02263V9.05005V9.07747V9.1049V9.13234V9.1598V9.18726V9.21474V9.24222V9.26971V9.29721V9.32472V9.35224V9.37976V9.40729V9.43483V9.46237V9.48993V9.51748V9.54504V9.57261V9.60018V9.62776V9.65534V9.68293V9.71052V9.73811V9.76571V9.7933V9.8209V9.84851V9.87611V9.90371V9.93132V9.95893V9.98653V10.0141V10.0417V10.0693V10.097V10.1246V10.1522V10.1798V10.2074V10.2349V10.2625V10.2901V10.3177V10.3453V10.3729V10.4004V10.428V10.4556V10.4831V10.5107V10.5382V10.5657V10.5933V10.6208V10.6483V10.6758V10.7033V10.7308V10.7583V10.7857V10.8132V10.8406V10.8681V10.8955V10.9229V10.9503V10.9777V11.0051V11.0325V11.0598V11.0872V11.1145V11.1418V11.1691V11.1964V11.2237V11.2509V11.2782V11.3054V11.3326V11.3598V11.387V11.4141V11.4413V11.4684V11.4955V11.5226V11.5497V11.5767V11.6037V11.6308V11.6578V11.6847V11.7117V11.7386V11.7655V11.7924V11.8193V11.8461V11.8729V11.8997V11.9265V11.9532V11.98V12.0067V12.0333V12.06V12.0866V12.1132V12.1398V12.1663V12.1928V12.2193V12.2458V12.2722V12.2986V12.325V12.3514V12.3777V12.404V12.4303V12.4565V12.4827V12.5089V12.535V12.5611V12.5872V12.6132V12.6392V12.6652V12.6912V12.7171V12.743V12.7688V12.7946V12.8204V12.8461V12.8719V12.8975V12.9232V12.9488V12.9743V12.9998V13.0253V13.0508V13.0762V13.1016V13.1269V13.1522V13.1774V13.2027V13.2278V13.253V13.2781V13.3031V13.3281V13.3531V13.378V13.4029V13.4278V13.4526V13.4773V13.502V13.5267V13.5513V13.5759V13.6004V13.6249V13.6494V13.6738V13.6981V13.7224V13.7467V13.7709V13.795V13.8192V13.8432V13.8672V13.8912V13.9151V13.939V13.9628V13.9866V14.0103V14.034V14.0576V14.0811V14.1046V14.1281V14.1515V14.1749V14.1981V14.2214V14.2446V14.2677V14.2908V14.3138V14.3368V14.3597V14.3826V14.4054V14.4281V14.4479C11.5519 13.9116 13.7543 13.5979 16 14.412V4.18067C15.4172 3.70576 14.5389 3.21233 13.5423 3.05311C12.4971 2.88616 11.2642 3.07328 10 4.17069ZM8 4.17903C7.41724 3.70395 6.53889 3.21033 5.54221 3.05107C4.49713 2.88408 3.26426 3.07122 2 4.16906V4.17964V4.19795V4.21634V4.2348V4.25335V4.27197V4.29067V4.30944V4.32829V4.34722V4.36623V4.38531V4.40446V4.42369V4.443V4.46238V4.48183V4.50136V4.52096V4.54063V4.56037V4.58019V4.60008V4.62004V4.64008V4.66018V4.68035V4.7006V4.72091V4.7413V4.76175V4.78227V4.80286V4.82352V4.84425V4.86504V4.88591V4.90684V4.92783V4.94889V4.97002V4.99121V5.01247V5.0338V5.05518V5.07664V5.09815V5.11973V5.14138V5.16308V5.18485V5.20668V5.22858V5.25053V5.27255V5.29462V5.31676V5.33896V5.36122V5.38353V5.40591V5.42835V5.45084V5.47339V5.496V5.51867V5.5414V5.56418V5.58702V5.60991V5.63286V5.65587V5.67893V5.70205V5.72522V5.74845V5.77173V5.79506V5.81845V5.84189V5.86538V5.88892V5.91252V5.93617V5.95987V5.98362V6.00742V6.03127V6.05517V6.07912V6.10312V6.12717V6.15126V6.17541V6.1996V6.22384V6.24813V6.27247V6.29685V6.32128V6.34575V6.37027V6.39484V6.41945V6.4441V6.4688V6.49354V6.51833V6.54316V6.56803V6.59295V6.6179V6.6429V6.66794V6.69303V6.71815V6.74331V6.76852V6.79376V6.81905V6.84437V6.86973V6.89513V6.92057V6.94605V6.97156V6.99711V7.0227V7.04832V7.07399V7.09968V7.12542V7.15118V7.17699V7.20282V7.2287V7.2546V7.28054V7.30651V7.33252V7.35856V7.38463V7.41073V7.43686V7.46303V7.48922V7.51545V7.54171V7.568V7.59431V7.62066V7.64703V7.67343V7.69987V7.72633V7.75281V7.77933V7.80587V7.83244V7.85903V7.88565V7.9123V7.93897V7.96566V7.99238V8.01913V8.0459V8.07269V8.0995V8.12634V8.1532V8.18008V8.20699V8.23392V8.26086V8.28783V8.31482V8.34183V8.36886V8.39591V8.42298V8.45007V8.47717V8.5043V8.53144V8.5586V8.58578V8.61297V8.64018V8.66741V8.69465V8.72191V8.74918V8.77647V8.80377V8.83109V8.85842V8.88577V8.91312V8.94049V8.96788V8.99527V9.02268V9.0501V9.07753V9.10497V9.13242V9.15989V9.18736V9.21484V9.24233V9.26983V9.29734V9.32486V9.35238V9.37991V9.40745V9.435V9.46255V9.49011V9.51768V9.54525V9.57282V9.6004V9.62799V9.65558V9.68317V9.71077V9.73837V9.76597V9.79358V9.82119V9.8488V9.87641V9.90402V9.93164V9.95925V9.98687V10.0145V10.0421V10.0697V10.0973V10.1249V10.1525V10.1801V10.2078V10.2354V10.263V10.2905V10.3181V10.3457V10.3733V10.4009V10.4285V10.456V10.4836V10.5111V10.5387V10.5662V10.5938V10.6213V10.6488V10.6763V10.7038V10.7313V10.7588V10.7863V10.8138V10.8412V10.8687V10.8961V10.9235V10.9509V10.9783V11.0057V11.0331V11.0605V11.0878V11.1152V11.1425V11.1698V11.1971V11.2244V11.2516V11.2789V11.3061V11.3333V11.3605V11.3877V11.4149V11.442V11.4692V11.4963V11.5234V11.5505V11.5775V11.6046V11.6316V11.6586V11.6856V11.7125V11.7395V11.7664V11.7933V11.8201V11.847V11.8738V11.9006V11.9274V11.9542V11.9809V12.0076V12.0343V12.0609V12.0876V12.1142V12.1408V12.1673V12.1938V12.2203V12.2468V12.2733V12.2997V12.3261V12.3524V12.3787V12.405V12.4313V12.4576V12.4838V12.51V12.5361V12.5622V12.5883V12.6144V12.6404V12.6664V12.6923V12.7182V12.7441V12.77V12.7958V12.8216V12.8473V12.8731V12.8987V12.9244V12.95V12.9755V13.0011V13.0266V13.052V13.0774V13.1028V13.1282V13.1535V13.1787V13.204V13.2291V13.2543V13.2794V13.3044V13.3295V13.3544V13.3794V13.4043V13.4291V13.4539V13.4787V13.5034V13.5281V13.5527V13.5773V13.6018V13.6263V13.6508V13.6752V13.6996V13.7239V13.7481V13.7723V13.7965V13.8206V13.8447V13.8687V13.8927V13.9166V13.9405V13.9643V13.9881V14.0118V14.0355V14.0591V14.0827V14.1062V14.1297V14.1531V14.1764V14.1997V14.223V14.2462V14.2693V14.2924V14.3155V14.3384V14.3614V14.3842V14.407V14.4298V14.4499C3.55188 13.9134 5.75428 13.5997 8 14.4139V14.4054V14.3826V14.3597V14.3368V14.3138V14.2908V14.2677V14.2446V14.2214V14.1981V14.1749V14.1515V14.1281V14.1046V14.0811V14.0576V14.034V14.0103V13.9866V13.9628V13.939V13.9151V13.8912V13.8672V13.8432V13.8192V13.795V13.7709V13.7467V13.7224V13.6981V13.6738V13.6494V13.6249V13.6004V13.5759V13.5513V13.5267V13.502V13.4773V13.4526V13.4278V13.4029V13.378V13.3531V13.3281V13.3031V13.2781V13.253V13.2278V13.2027V13.1774V13.1522V13.1269V13.1016V13.0762V13.0508V13.0253V12.9998V12.9743V12.9488V12.9232V12.8975V12.8719V12.8461V12.8204V12.7946V12.7688V12.743V12.7171V12.6912V12.6652V12.6392V12.6132V12.5872V12.5611V12.535V12.5089V12.4827V12.4565V12.4303V12.404V12.3777V12.3514V12.325V12.2986V12.2722V12.2458V12.2193V12.1928V12.1663V12.1398V12.1132V12.0866V12.06V12.0333V12.0067V11.98V11.9532V11.9265V11.8997V11.8729V11.8461V11.8193V11.7924V11.7655V11.7386V11.7117V11.6847V11.6578V11.6308V11.6037V11.5767V11.5497V11.5226V11.4955V11.4684V11.4413V11.4141V11.387V11.3598V11.3326V11.3054V11.2782V11.2509V11.2237V11.1964V11.1691V11.1418V11.1145V11.0872V11.0598V11.0325V11.0051V10.9777V10.9503V10.9229V10.8955V10.8681V10.8406V10.8132V10.7857V10.7583V10.7308V10.7033V10.6758V10.6483V10.6208V10.5933V10.5657V10.5382V10.5107V10.4831V10.4556V10.428V10.4004V10.3729V10.3453V10.3177V10.2901V10.2625V10.2349V10.2074V10.1798V10.1522V10.1246V10.097V10.0693V10.0417V10.0141V9.98653V9.95893V9.93132V9.90371V9.87611V9.84851V9.8209V9.7933V9.76571V9.73811V9.71052V9.68293V9.65534V9.62776V9.60018V9.57261V9.54504V9.51748V9.48993V9.46237V9.43483V9.40729V9.37976V9.35224V9.32472V9.29721V9.26971V9.24222V9.21474V9.18726V9.1598V9.13234V9.1049V9.07747V9.05005V9.02263V8.99523V8.96785V8.94047V8.91311V8.88576V8.85842V8.8311V8.80379V8.7765V8.74922V8.72195V8.6947V8.66747V8.64025V8.61304V8.58586V8.55869V8.53154V8.5044V8.47729V8.45019V8.42311V8.39605V8.36901V8.34199V8.31499V8.28801V8.26104V8.23411V8.20719V8.18029V8.15341V8.12656V8.09973V8.07292V8.04614V8.01938V7.99264V7.96593V7.93924V7.91258V7.88594V7.85933V7.83274V7.80618V7.77965V7.75315V7.72667V7.70021V7.67379V7.6474V7.62103V7.59469V7.56838V7.5421V7.51585V7.48964V7.46345V7.43729V7.41116V7.38507V7.35901V7.33298V7.30698V7.28101V7.25508V7.22919V7.20332V7.17749V7.1517V7.12594V7.10021V7.07452V7.04887V7.02325V6.99767V6.97213V6.94662V6.92115V6.89572V6.87033V6.84497V6.81966V6.79438V6.76915V6.74395V6.71879V6.69368V6.6686V6.64357V6.61858V6.59363V6.56872V6.54385V6.51903V6.49425V6.46952V6.44483V6.42018V6.39558V6.37102V6.34651V6.32204V6.29762V6.27324V6.24892V6.22463V6.2004V6.17621V6.15208V6.12799V6.10394V6.07995V6.05601V6.03211V6.00827V5.98448V5.96073V5.93704V5.9134V5.88981V5.86627V5.84279V5.81936V5.79598V5.77265V5.74938V5.72616V5.703V5.67988V5.65683V5.63383V5.61089V5.588V5.56517V5.54239V5.51967V5.49701V5.47441V5.45186V5.42937V5.40695V5.38457V5.36226V5.34001V5.31782V5.29569V5.27362V5.25161V5.22966V5.20778V5.18595V5.16419V5.14249V5.12085V5.09928V5.07777V5.05632V5.03494V5.01362V4.99237V4.97118V4.95006V4.92901V4.90802V4.8871V4.86624V4.84545V4.82473V4.80408V4.78349V4.76298V4.74253V4.72215V4.70184V4.68161V4.66144V4.64134V4.62131V4.60136V4.58147V4.56166V4.54192V4.52225V4.50266V4.48314V4.46369V4.44432V4.42502V4.4058V4.38665V4.36757V4.34857V4.32965V4.3108V4.29203V4.27334V4.25473V4.23619V4.21773V4.19935V4.18104V4.17903Z" fill="white"/>
</svg>
