<svg width="25" height="24" viewBox="0 0 25 24" fill="none" xmlns="http://www.w3.org/2000/svg">
<path d="M5.55554 9.75C5.55554 6.02208 8.57762 3 12.3055 3C16.0335 3 19.0555 6.02208 19.0555 9.75V13.6972L20.8876 16.4453C21.0922 16.7522 21.1112 17.1467 20.9372 17.4719C20.7632 17.797 20.4243 18 20.0555 18H4.55554C4.18675 18 3.84789 17.797 3.67387 17.4719C3.49985 17.1467 3.51892 16.7522 3.72349 16.4453L5.55554 13.6972V9.75Z" fill="#FFFF00"/>
<path d="M12.5555 21C13.6601 21 14.5555 20.1046 14.5555 19H10.5555C10.5555 20.1046 11.451 21 12.5555 21Z" fill="#FFFF00"/>
</svg>
