<svg width="19" height="18" viewBox="0 0 19 18" fill="none" xmlns="http://www.w3.org/2000/svg">
<path fill-rule="evenodd" clip-rule="evenodd" d="M9.55554 0C5.82762 0 2.80554 3.02208 2.80554 6.75V10.6972L0.973493 13.4453C0.768922 13.7522 0.74985 14.1467 0.923869 14.4719C1.09789 14.797 1.43675 15 1.80554 15H17.3055C17.6743 15 18.0132 14.797 18.1872 14.4719C18.3612 14.1467 18.3422 13.7522 18.1376 13.4453L16.3055 10.6972V6.75C16.3055 3.02208 13.2835 0 9.55554 0ZM4.80554 6.75C4.80554 4.12665 6.93219 2 9.55554 2C12.1789 2 14.3055 4.12665 14.3055 6.75V11C14.3055 11.1974 14.364 11.3904 14.4735 11.5547L15.437 13H3.67406L4.63759 11.5547C4.74711 11.3904 4.80554 11.1974 4.80554 11V6.75ZM11.8055 16C11.8055 17.1046 10.9101 18 9.80554 18C8.70097 18 7.80554 17.1046 7.80554 16H11.8055Z" fill="#666666"/>
</svg>
