<svg width="24" height="24" viewBox="0 0 24 24" fill="none" xmlns="http://www.w3.org/2000/svg">
<path fill-rule="evenodd" clip-rule="evenodd" d="M16 3C16.5523 3 17 3.44772 17 4V5H18C19.1046 5 20 5.89543 20 7V11V18C20 19.1046 19.1046 20 18 20H6C4.89543 20 4 19.1046 4 18V11V7C4 5.89543 4.89543 5 6 5H7V4C7 3.44772 7.44772 3 8 3C8.55228 3 9 3.44772 9 4V5H15V4C15 3.44772 15.4477 3 16 3ZM7 7C7 7.55228 7.44772 8 8 8C8.55228 8 9 7.55228 9 7H15C15 7.55228 15.4477 8 16 8C16.5523 8 17 7.55228 17 7H18V10H6V7H7ZM18 12H6V18H18V12Z" fill="white"/>
</svg>
