<svg width="18" height="18" viewBox="0 0 16 17" fill="none" xmlns="http://www.w3.org/2000/svg">
<path fill-rule="evenodd" clip-rule="evenodd" d="M12 0C12.5523 0 13 0.447715 13 1V2H14C15.1046 2 16 2.89543 16 4V8V15C16 16.1046 15.1046 17 14 17H2C0.895431 17 0 16.1046 0 15V8V4C0 2.89543 0.895431 2 2 2H3V1C3 0.447715 3.44772 0 4 0C4.55228 0 5 0.447715 5 1V2H11V1C11 0.447715 11.4477 0 12 0ZM3 4C3 4.55228 3.44772 5 4 5C4.55228 5 5 4.55228 5 4H11C11 4.55228 11.4477 5 12 5C12.5523 5 13 4.55228 13 4H14V7H2V4H3ZM14 9H2V15H14V9Z" fill="#FFFF00"/>
</svg>
