<svg width="24" height="24" viewBox="0 0 24 24" fill="none" xmlns="http://www.w3.org/2000/svg">
<path d="M6.1905 17.5L7.01339 18.0682L7.47406 17.401L6.91657 16.8124L6.1905 17.5ZM4.00003 20L3.29291 19.2929C3.00692 19.5789 2.92137 20.009 3.07615 20.3827C3.23093 20.7564 3.59557 21 4.00003 21V20ZM19 12C19 15.866 15.866 19 12 19V21C16.9706 21 21 16.9706 21 12H19ZM5 12C5 8.13401 8.13401 5 12 5V3C7.02944 3 3 7.02944 3 12H5ZM12 5C15.866 5 19 8.13401 19 12H21C21 7.02944 16.9706 3 12 3V5ZM6.91657 16.8124C5.72769 15.557 5 13.8646 5 12H3C3 14.3963 3.93781 16.5756 5.46443 18.1876L6.91657 16.8124ZM12 19C11.9978 19 11.9955 19 11.9932 19C11.991 19 11.9887 19 11.9864 19C11.9841 19 11.9817 19 11.9794 19C11.9771 19 11.9747 19 11.9723 19C11.9699 19 11.9675 19 11.9651 19C11.9627 19 11.9603 19 11.9578 19C11.9554 19 11.9529 19 11.9504 19C11.948 19 11.9455 19 11.9429 19C11.9404 19 11.9379 19 11.9353 19C11.9328 19 11.9302 19 11.9276 19C11.925 19 11.9224 19 11.9198 19C11.9172 19 11.9146 19 11.9119 19C11.9092 19 11.9066 19 11.9039 19C11.9012 19 11.8985 19 11.8958 19C11.893 19 11.8903 19 11.8875 19C11.8848 19 11.882 19 11.8792 19C11.8764 19 11.8736 19 11.8708 19C11.868 19 11.8651 19 11.8623 19C11.8594 19 11.8565 19 11.8536 19C11.8507 19 11.8478 19 11.8449 19C11.842 19 11.839 19 11.8361 19C11.8331 19 11.8301 19 11.8271 19C11.8242 19 11.8212 19 11.8181 19C11.8151 19 11.8121 19 11.809 19C11.8059 19 11.8029 19 11.7998 19C11.7967 19 11.7936 19 11.7905 19C11.7873 19 11.7842 19 11.7811 19C11.7779 19 11.7747 19 11.7715 19C11.7684 19 11.7652 19 11.7619 19C11.7587 19 11.7555 19 11.7522 19C11.749 19 11.7457 19 11.7424 19C11.7392 19 11.7359 19 11.7326 19C11.7292 19 11.7259 19 11.7226 19C11.7192 19 11.7159 19 11.7125 19C11.7091 19 11.7057 19 11.7023 19C11.6989 19 11.6955 19 11.6921 19C11.6886 19 11.6852 19 11.6817 19C11.6782 19 11.6748 19 11.6713 19C11.6678 19 11.6642 19 11.6607 19C11.6572 19 11.6536 19 11.6501 19C11.6465 19 11.643 19 11.6394 19C11.6358 19 11.6322 19 11.6286 19C11.6249 19 11.6213 19 11.6177 19C11.614 19 11.6103 19 11.6067 19C11.603 19 11.5993 19 11.5956 19C11.5919 19 11.5882 19 11.5844 19C11.5807 19 11.5769 19 11.5732 19C11.5694 19 11.5656 19 11.5618 19C11.558 19 11.5542 19 11.5504 19C11.5466 19 11.5427 19 11.5389 19C11.535 19 11.5311 19 11.5273 19C11.5234 19 11.5195 19 11.5156 19C11.5117 19 11.5077 19 11.5038 19C11.4998 19 11.4959 19 11.4919 19C11.488 19 11.484 19 11.48 19C11.476 19 11.472 19 11.4679 19C11.4639 19 11.4599 19 11.4558 19C11.4518 19 11.4477 19 11.4436 19C11.4396 19 11.4355 19 11.4313 19C11.4272 19 11.4231 19 11.419 19C11.4149 19 11.4107 19 11.4065 19C11.4024 19 11.3982 19 11.394 19C11.3898 19 11.3856 19 11.3814 19C11.3772 19 11.373 19 11.3687 19C11.3645 19 11.3602 19 11.3559 19C11.3517 19 11.3474 19 11.3431 19C11.3388 19 11.3345 19 11.3302 19C11.3258 19 11.3215 19 11.3171 19C11.3128 19 11.3084 19 11.3041 19C11.2997 19 11.2953 19 11.2909 19C11.2865 19 11.2821 19 11.2776 19C11.2732 19 11.2688 19 11.2643 19C11.2599 19 11.2554 19 11.2509 19C11.2464 19 11.242 19 11.2375 19C11.2329 19 11.2284 19 11.2239 19C11.2194 19 11.2148 19 11.2103 19C11.2057 19 11.2012 19 11.1966 19C11.192 19 11.1874 19 11.1828 19C11.1782 19 11.1736 19 11.1689 19C11.1643 19 11.1597 19 11.155 19C11.1504 19 11.1457 19 11.141 19C11.1363 19 11.1316 19 11.1269 19C11.1222 19 11.1175 19 11.1128 19C11.1081 19 11.1033 19 11.0986 19C11.0938 19 11.0891 19 11.0843 19C11.0795 19 11.0747 19 11.0699 19C11.0651 19 11.0603 19 11.0555 19C11.0507 19 11.0458 19 11.041 19C11.0361 19 11.0313 19 11.0264 19C11.0215 19 11.0167 19 11.0118 19C11.0069 19 11.002 19 10.9971 19C10.9921 19 10.9872 19 10.9823 19C10.9773 19 10.9724 19 10.9674 19C10.9625 19 10.9575 19 10.9525 19C10.9475 19 10.9425 19 10.9375 19C10.9325 19 10.9275 19 10.9225 19C10.9174 19 10.9124 19 10.9074 19C10.9023 19 10.8972 19 10.8922 19C10.8871 19 10.882 19 10.8769 19C10.8718 19 10.8667 19 10.8616 19C10.8565 19 10.8514 19 10.8462 19C10.8411 19 10.8359 19 10.8308 19C10.8256 19 10.8204 19 10.8153 19C10.8101 19 10.8049 19 10.7997 19C10.7945 19 10.7893 19 10.784 19C10.7788 19 10.7736 19 10.7683 19C10.7631 19 10.7578 19 10.7526 19C10.7473 19 10.742 19 10.7367 19C10.7315 19 10.7262 19 10.7209 19C10.7156 19 10.7102 19 10.7049 19C10.6996 19 10.6942 19 10.6889 19C10.6836 19 10.6782 19 10.6728 19C10.6675 19 10.6621 19 10.6567 19C10.6513 19 10.6459 19 10.6405 19C10.6351 19 10.6297 19 10.6243 19C10.6188 19 10.6134 19 10.608 19C10.6025 19 10.5971 19 10.5916 19C10.5861 19 10.5807 19 10.5752 19C10.5697 19 10.5642 19 10.5587 19C10.5532 19 10.5477 19 10.5421 19C10.5366 19 10.5311 19 10.5256 19C10.52 19 10.5145 19 10.5089 19C10.5033 19 10.4978 19 10.4922 19C10.4866 19 10.481 19 10.4754 19C10.4698 19 10.4642 19 10.4586 19C10.453 19 10.4474 19 10.4418 19C10.4361 19 10.4305 19 10.4248 19C10.4192 19 10.4135 19 10.4078 19C10.4022 19 10.3965 19 10.3908 19C10.3851 19 10.3794 19 10.3737 19C10.368 19 10.3623 19 10.3566 19C10.3509 19 10.3452 19 10.3394 19C10.3337 19 10.3279 19 10.3222 19C10.3164 19 10.3107 19 10.3049 19C10.2991 19 10.2933 19 10.2875 19C10.2818 19 10.276 19 10.2702 19C10.2643 19 10.2585 19 10.2527 19C10.2469 19 10.2411 19 10.2352 19C10.2294 19 10.2235 19 10.2177 19C10.2118 19 10.206 19 10.2001 19C10.1942 19 10.1884 19 10.1825 19C10.1766 19 10.1707 19 10.1648 19C10.1589 19 10.153 19 10.1471 19C10.1411 19 10.1352 19 10.1293 19C10.1233 19 10.1174 19 10.1115 19C10.1055 19 10.0996 19 10.0936 19C10.0876 19 10.0817 19 10.0757 19C10.0697 19 10.0637 19 10.0577 19C10.0517 19 10.0457 19 10.0397 19C10.0337 19 10.0277 19 10.0217 19C10.0156 19 10.0096 19 10.0036 19C9.99754 19 9.99149 19 9.98544 19C9.97939 19 9.97333 19 9.96727 19C9.9612 19 9.95513 19 9.94905 19C9.94297 19 9.93688 19 9.93079 19C9.92469 19 9.91859 19 9.91248 19C9.90637 19 9.90026 19 9.89414 19C9.88802 19 9.88189 19 9.87575 19C9.86962 19 9.86348 19 9.85733 19C9.85118 19 9.84503 19 9.83887 19C9.8327 19 9.82654 19 9.82036 19C9.81419 19 9.80801 19 9.80182 19C9.79563 19 9.78944 19 9.78324 19C9.77704 19 9.77083 19 9.76462 19C9.75841 19 9.75219 19 9.74596 19C9.73974 19 9.7335 19 9.72727 19C9.72103 19 9.71478 19 9.70853 19C9.70228 19 9.69603 19 9.68977 19C9.68351 19 9.67724 19 9.67096 19C9.66469 19 9.65841 19 9.65212 19C9.64584 19 9.63955 19 9.63325 19C9.62695 19 9.62065 19 9.61434 19C9.60803 19 9.60172 19 9.5954 19C9.58908 19 9.58275 19 9.57642 19C9.57009 19 9.56375 19 9.55741 19C9.55107 19 9.54472 19 9.53837 19C9.53201 19 9.52565 19 9.51929 19C9.51293 19 9.50656 19 9.50018 19C9.49381 19 9.48743 19 9.48104 19C9.47466 19 9.46827 19 9.46187 19C9.45547 19 9.44907 19 9.44267 19C9.43626 19 9.42985 19 9.42344 19C9.41702 19 9.4106 19 9.40417 19C9.39775 19 9.39132 19 9.38488 19C9.37845 19 9.372 19 9.36556 19C9.35911 19 9.35266 19 9.34621 19C9.33975 19 9.3333 19 9.32683 19C9.32037 19 9.3139 19 9.30743 19C9.30095 19 9.29447 19 9.28799 19C9.28151 19 9.27502 19 9.26853 19C9.26204 19 9.25554 19 9.24904 19C9.24254 19 9.23604 19 9.22953 19C9.22302 19 9.21651 19 9.20999 19C9.20347 19 9.19695 19 9.19043 19C9.1839 19 9.17737 19 9.17084 19C9.1643 19 9.15777 19 9.15122 19C9.14468 19 9.13814 19 9.13159 19C9.12504 19 9.11848 19 9.11193 19C9.10537 19 9.09881 19 9.09224 19C9.08568 19 9.07911 19 9.07253 19C9.06596 19 9.05939 19 9.0528 19C9.04623 19 9.03964 19 9.03305 19C9.02647 19 9.01988 19 9.01328 19C9.00669 19 9.00009 19 8.99349 19C8.98689 19 8.98028 19 8.97367 19C8.96706 19 8.96045 19 8.95384 19C8.94722 19 8.94061 19 8.93398 19C8.92736 19 8.92074 19 8.91411 19C8.90748 19 8.90085 19 8.89422 19C8.88758 19 8.88095 19 8.87431 19C8.86767 19 8.86103 19 8.85438 19C8.84773 19 8.84108 19 8.83443 19C8.82778 19 8.82113 19 8.81447 19C8.80781 19 8.80115 19 8.79449 19C8.78783 19 8.78116 19 8.77449 19C8.76782 19 8.76115 19 8.75448 19C8.74781 19 8.74113 19 8.73445 19C8.72777 19 8.72109 19 8.71441 19C8.70773 19 8.70104 19 8.69435 19C8.68766 19 8.68097 19 8.67428 19C8.66759 19 8.66089 19 8.65419 19C8.6475 19 8.6408 19 8.6341 19C8.62739 19 8.62069 19 8.61398 19C8.60728 19 8.60057 19 8.59386 19C8.58715 19 8.58044 19 8.57372 19C8.56701 19 8.56029 19 8.55358 19C8.54686 19 8.54014 19 8.53342 19C8.52669 19 8.51997 19 8.51325 19C8.50652 19 8.49979 19 8.49307 19C8.48634 19 8.47961 19 8.47288 19C8.46615 19 8.45941 19 8.45268 19C8.44594 19 8.43921 19 8.43247 19C8.42573 19 8.41899 19 8.41225 19C8.40551 19 8.39877 19 8.39203 19C8.38528 19 8.37854 19 8.37179 19C8.36505 19 8.3583 19 8.35155 19C8.34481 19 8.33806 19 8.33131 19C8.32456 19 8.3178 19 8.31105 19C8.3043 19 8.29755 19 8.29079 19C8.28404 19 8.27728 19 8.27053 19C8.26377 19 8.25701 19 8.25026 19C8.2435 19 8.23674 19 8.22998 19C8.22322 19 8.21646 19 8.2097 19C8.20294 19 8.19618 19 8.18942 19C8.18266 19 8.17589 19 8.16913 19C8.16237 19 8.1556 19 8.14884 19C8.14208 19 8.13531 19 8.12855 19C8.12178 19 8.11502 19 8.10825 19C8.10149 19 8.09472 19 8.08796 19C8.08119 19 8.07442 19 8.06766 19C8.06089 19 8.05413 19 8.04736 19C8.04059 19 8.03383 19 8.02706 19C8.02029 19 8.01353 19 8.00676 19C7.99999 19 7.99323 19 7.98646 19C7.9797 19 7.97293 19 7.96616 19C7.9594 19 7.95263 19 7.94587 19C7.9391 19 7.93234 19 7.92557 19C7.91881 19 7.91204 19 7.90528 19C7.89851 19 7.89175 19 7.88499 19C7.87822 19 7.87146 19 7.8647 19C7.85794 19 7.85118 19 7.84441 19C7.83765 19 7.83089 19 7.82413 19C7.81737 19 7.81062 19 7.80386 19C7.7971 19 7.79034 19 7.78359 19C7.77683 19 7.77007 19 7.76332 19C7.75656 19 7.74981 19 7.74306 19C7.7363 19 7.72955 19 7.7228 19C7.71605 19 7.7093 19 7.70255 19C7.6958 19 7.68906 19 7.68231 19C7.67556 19 7.66882 19 7.66208 19C7.65533 19 7.64859 19 7.64185 19C7.63511 19 7.62837 19 7.62163 19C7.61489 19 7.60815 19 7.60142 19C7.59468 19 7.58795 19 7.58122 19C7.57448 19 7.56775 19 7.56102 19C7.55429 19 7.54757 19 7.54084 19C7.53411 19 7.52739 19 7.52067 19C7.51395 19 7.50722 19 7.50051 19C7.49379 19 7.48707 19 7.48035 19C7.47364 19 7.46693 19 7.46022 19C7.4535 19 7.4468 19 7.44009 19C7.43338 19 7.42668 19 7.41997 19C7.41327 19 7.40657 19 7.39987 19C7.39317 19 7.38648 19 7.37978 19C7.37309 19 7.3664 19 7.35971 19C7.35302 19 7.34633 19 7.33964 19C7.33296 19 7.32628 19 7.3196 19C7.31292 19 7.30624 19 7.29957 19C7.29289 19 7.28622 19 7.27955 19C7.27288 19 7.26621 19 7.25955 19C7.25288 19 7.24622 19 7.23956 19C7.2329 19 7.22625 19 7.21959 19C7.21294 19 7.20629 19 7.19964 19C7.193 19 7.18635 19 7.17971 19C7.17307 19 7.16643 19 7.15979 19C7.15316 19 7.14653 19 7.1399 19C7.13327 19 7.12664 19 7.12002 19C7.11339 19 7.10678 19 7.10016 19C7.09354 19 7.08693 19 7.08032 19C7.07371 19 7.0671 19 7.0605 19C7.0539 19 7.0473 19 7.0407 19C7.0341 19 7.02751 19 7.02092 19C7.01433 19 7.00775 19 7.00116 19C6.99458 19 6.988 19 6.98143 19C6.97485 19 6.96828 19 6.96172 19C6.95515 19 6.94858 19 6.94202 19C6.93547 19 6.92891 19 6.92236 19C6.91581 19 6.90926 19 6.90271 19C6.89617 19 6.88963 19 6.88309 19C6.87656 19 6.87003 19 6.8635 19C6.85697 19 6.85045 19 6.84393 19C6.83741 19 6.83089 19 6.82438 19C6.81787 19 6.81136 19 6.80486 19C6.79836 19 6.79186 19 6.78537 19C6.77887 19 6.77238 19 6.7659 19C6.75941 19 6.75293 19 6.74646 19C6.73998 19 6.73351 19 6.72704 19C6.72058 19 6.71411 19 6.70766 19C6.7012 19 6.69475 19 6.6883 19C6.68185 19 6.67541 19 6.66897 19C6.66253 19 6.6561 19 6.64967 19C6.64324 19 6.63682 19 6.6304 19C6.62398 19 6.61757 19 6.61116 19C6.60475 19 6.59835 19 6.59195 19C6.58555 19 6.57916 19 6.57277 19C6.56638 19 6.56 19 6.55362 19C6.54724 19 6.54087 19 6.5345 19C6.52814 19 6.52177 19 6.51542 19C6.50906 19 6.50271 19 6.49637 19C6.49002 19 6.48368 19 6.47735 19C6.47101 19 6.46468 19 6.45836 19C6.45204 19 6.44572 19 6.43941 19C6.4331 19 6.42679 19 6.42049 19C6.41419 19 6.40789 19 6.4016 19C6.39532 19 6.38903 19 6.38276 19C6.37648 19 6.37021 19 6.36394 19C6.35768 19 6.35142 19 6.34517 19C6.33891 19 6.33266 19 6.32642 19C6.32018 19 6.31395 19 6.30772 19C6.30149 19 6.29527 19 6.28905 19C6.28284 19 6.27663 19 6.27042 19C6.26422 19 6.25802 19 6.25183 19C6.24564 19 6.23945 19 6.23328 19C6.2271 19 6.22093 19 6.21476 19C6.2086 19 6.20244 19 6.19629 19C6.19014 19 6.18399 19 6.17785 19C6.17171 19 6.16558 19 6.15946 19C6.15333 19 6.14721 19 6.1411 19C6.13499 19 6.12889 19 6.12279 19C6.11669 19 6.1106 19 6.10452 19C6.09843 19 6.09235 19 6.08628 19C6.08021 19 6.07415 19 6.0681 19C6.06204 19 6.05599 19 6.04995 19C6.04391 19 6.03788 19 6.03185 19C6.02582 19 6.0198 19 6.01379 19C6.00778 19 6.00177 19 5.99577 19C5.98978 19 5.98379 19 5.9778 19C5.97182 19 5.96585 19 5.95988 19C5.95391 19 5.94795 19 5.942 19C5.93605 19 5.9301 19 5.92416 19C5.91823 19 5.9123 19 5.90638 19C5.90045 19 5.89454 19 5.88863 19C5.88273 19 5.87683 19 5.87094 19C5.86505 19 5.85917 19 5.85329 19C5.84742 19 5.84155 19 5.83569 19C5.82983 19 5.82398 19 5.81814 19C5.8123 19 5.80646 19 5.80064 19C5.79481 19 5.78899 19 5.78318 19C5.77737 19 5.77157 19 5.76578 19C5.75999 19 5.7542 19 5.74843 19C5.74265 19 5.73688 19 5.73112 19C5.72536 19 5.71961 19 5.71387 19C5.70813 19 5.70239 19 5.69667 19C5.69094 19 5.68523 19 5.67952 19C5.67381 19 5.66811 19 5.66242 19C5.65673 19 5.65105 19 5.64538 19C5.6397 19 5.63404 19 5.62838 19C5.62273 19 5.61708 19 5.61144 19C5.60581 19 5.60018 19 5.59456 19C5.58894 19 5.58333 19 5.57773 19C5.57213 19 5.56654 19 5.56095 19C5.55537 19 5.5498 19 5.54423 19C5.53867 19 5.53311 19 5.52757 19C5.52202 19 5.51648 19 5.51096 19C5.50543 19 5.49991 19 5.4944 19C5.4889 19 5.4834 19 5.47791 19C5.47242 19 5.46694 19 5.46147 19C5.456 19 5.45054 19 5.44509 19C5.43964 19 5.4342 19 5.42876 19C5.42333 19 5.41791 19 5.4125 19C5.40709 19 5.40169 19 5.39629 19C5.3909 19 5.38552 19 5.38015 19C5.37478 19 5.36941 19 5.36406 19C5.35871 19 5.35337 19 5.34803 19C5.3427 19 5.33738 19 5.33207 19C5.32676 19 5.32146 19 5.31616 19C5.31087 19 5.30559 19 5.30032 19C5.29505 19 5.28979 19 5.28454 19C5.27929 19 5.27405 19 5.26882 19C5.26359 19 5.25837 19 5.25317 19C5.24796 19 5.24276 19 5.23757 19C5.23239 19 5.22721 19 5.22205 19C5.21688 19 5.21172 19 5.20658 19C5.20144 19 5.1963 19 5.19118 19C5.18606 19 5.18095 19 5.17585 19C5.17074 19 5.16565 19 5.16058 19C5.1555 19 5.15043 19 5.14537 19C5.14031 19 5.13527 19 5.13023 19C5.1252 19 5.12017 19 5.11516 19C5.11015 19 5.10515 19 5.10016 19C5.09517 19 5.09019 19 5.08522 19C5.08025 19 5.0753 19 5.07035 19C5.06541 19 5.06047 19 5.05555 19C5.05063 19 5.04572 19 5.04082 19C5.03592 19 5.03103 19 5.02616 19C5.02128 19 5.01642 19 5.01157 19C5.00671 19 5.00187 19 4.99704 19C4.99221 19 4.9874 19 4.98259 19C4.97779 19 4.97299 19 4.96821 19C4.96343 19 4.95866 19 4.9539 19C4.94914 19 4.9444 19 4.93966 19C4.93493 19 4.93021 19 4.9255 19C4.92079 19 4.91609 19 4.9114 19C4.90672 19 4.90204 19 4.89738 19C4.89272 19 4.88807 19 4.88344 19C4.8788 19 4.87418 19 4.86956 19C4.86495 19 4.86035 19 4.85577 19C4.85118 19 4.8466 19 4.84204 19C4.83748 19 4.83293 19 4.82839 19C4.82386 19 4.81933 19 4.81482 19C4.81031 19 4.80581 19 4.80133 19C4.79684 19 4.79237 19 4.78791 19C4.78344 19 4.779 19 4.77456 19C4.77013 19 4.76571 19 4.7613 19C4.75689 19 4.75249 19 4.74811 19C4.74373 19 4.73936 19 4.735 19C4.73064 19 4.7263 19 4.72197 19C4.71764 19 4.71332 19 4.70902 19C4.70471 19 4.70042 19 4.69614 19C4.69187 19 4.6876 19 4.68335 19C4.6791 19 4.67486 19 4.67064 19C4.66641 19 4.6622 19 4.65801 19C4.65381 19 4.64963 19 4.64546 19C4.64129 19 4.63713 19 4.63299 19C4.62885 19 4.62472 19 4.6206 19C4.61649 19 4.61238 19 4.6083 19C4.60421 19 4.60014 19 4.59608 19C4.59202 19 4.58797 19 4.58394 19C4.57991 19 4.57589 19 4.57188 19C4.56788 19 4.56389 19 4.55991 19C4.55594 19 4.55198 19 4.54803 19C4.54408 19 4.54015 19 4.53623 19C4.53231 19 4.5284 19 4.52451 19C4.52062 19 4.51675 19 4.51288 19C4.50902 19 4.50517 19 4.50134 19C4.49751 19 4.49369 19 4.48989 19C4.48608 19 4.48229 19 4.47852 19C4.47474 19 4.47098 19 4.46724 19C4.46349 19 4.45976 19 4.45604 19C4.45233 19 4.44863 19 4.44494 19C4.44125 19 4.43758 19 4.43392 19C4.43027 19 4.42662 19 4.423 19C4.41937 19 4.41576 19 4.41216 19C4.40856 19 4.40498 19 4.40141 19C4.39785 19 4.3943 19 4.39076 19C4.38722 19 4.3837 19 4.38019 19C4.37669 19 4.3732 19 4.36972 19C4.36624 19 4.36278 19 4.35934 19C4.35589 19 4.35246 19 4.34905 19C4.34564 19 4.34224 19 4.33885 19C4.33547 19 4.3321 19 4.32875 19C4.3254 19 4.32206 19 4.31874 19C4.31542 19 4.31212 19 4.30883 19C4.30554 19 4.30226 19 4.29901 19C4.29575 19 4.29251 19 4.28928 19C4.28605 19 4.28284 19 4.27965 19C4.27645 19 4.27328 19 4.27011 19C4.26695 19 4.2638 19 4.26067 19C4.25754 19 4.25443 19 4.25133 19C4.24823 19 4.24515 19 4.24209 19C4.23902 19 4.23597 19 4.23294 19C4.22991 19 4.22689 19 4.22389 19C4.22089 19 4.21791 19 4.21494 19C4.21197 19 4.20902 19 4.20608 19C4.20315 19 4.20023 19 4.19733 19C4.19443 19 4.19154 19 4.18868 19C4.18581 19 4.18296 19 4.18012 19C4.17729 19 4.17447 19 4.17167 19C4.16887 19 4.16608 19 4.16332 19C4.16055 19 4.1578 19 4.15506 19C4.15233 19 4.14961 19 4.14692 19C4.14422 19 4.14153 19 4.13887 19C4.1362 19 4.13355 19 4.13092 19C4.12829 19 4.12568 19 4.12308 19C4.12048 19 4.1179 19 4.11534 19C4.11278 19 4.11023 19 4.10771 19C4.10518 19 4.10267 19 4.10018 19C4.09768 19 4.09521 19 4.09275 19C4.09029 19 4.08785 19 4.08543 19C4.08301 19 4.0806 19 4.07822 19C4.07583 19 4.07346 19 4.07111 19C4.06875 19 4.06642 19 4.0641 19C4.06179 19 4.05949 19 4.05721 19C4.05493 19 4.05267 19 4.05042 19C4.04818 19 4.04595 19 4.04374 19C4.04153 19 4.03934 19 4.03717 19C4.03499 19 4.03284 19 4.0307 19C4.02857 19 4.02645 19 4.02435 19C4.02225 19 4.02017 19 4.0181 19C4.01604 19 4.01399 19 4.01197 19C4.00994 19 4.00793 19 4.00594 19C4.00395 19 4.00198 19 4.00003 19V21C4.00198 21 4.00395 21 4.00594 21C4.00793 21 4.00994 21 4.01197 21C4.01399 21 4.01604 21 4.0181 21C4.02017 21 4.02225 21 4.02435 21C4.02645 21 4.02857 21 4.0307 21C4.03284 21 4.03499 21 4.03717 21C4.03934 21 4.04153 21 4.04374 21C4.04595 21 4.04818 21 4.05042 21C4.05267 21 4.05493 21 4.05721 21C4.05949 21 4.06179 21 4.0641 21C4.06642 21 4.06875 21 4.07111 21C4.07346 21 4.07583 21 4.07822 21C4.0806 21 4.08301 21 4.08543 21C4.08785 21 4.09029 21 4.09275 21C4.09521 21 4.09768 21 4.10018 21C4.10267 21 4.10518 21 4.10771 21C4.11023 21 4.11278 21 4.11534 21C4.1179 21 4.12048 21 4.12308 21C4.12568 21 4.12829 21 4.13092 21C4.13355 21 4.1362 21 4.13887 21C4.14153 21 4.14422 21 4.14692 21C4.14961 21 4.15233 21 4.15506 21C4.1578 21 4.16055 21 4.16332 21C4.16608 21 4.16887 21 4.17167 21C4.17447 21 4.17729 21 4.18012 21C4.18296 21 4.18581 21 4.18868 21C4.19154 21 4.19443 21 4.19733 21C4.20023 21 4.20315 21 4.20608 21C4.20902 21 4.21197 21 4.21494 21C4.21791 21 4.22089 21 4.22389 21C4.22689 21 4.22991 21 4.23294 21C4.23597 21 4.23902 21 4.24209 21C4.24515 21 4.24823 21 4.25133 21C4.25443 21 4.25754 21 4.26067 21C4.2638 21 4.26695 21 4.27011 21C4.27328 21 4.27645 21 4.27965 21C4.28284 21 4.28605 21 4.28928 21C4.29251 21 4.29575 21 4.29901 21C4.30226 21 4.30554 21 4.30883 21C4.31212 21 4.31542 21 4.31874 21C4.32206 21 4.3254 21 4.32875 21C4.3321 21 4.33547 21 4.33885 21C4.34224 21 4.34564 21 4.34905 21C4.35246 21 4.35589 21 4.35934 21C4.36278 21 4.36624 21 4.36972 21C4.3732 21 4.37669 21 4.38019 21C4.3837 21 4.38722 21 4.39076 21C4.3943 21 4.39785 21 4.40141 21C4.40498 21 4.40856 21 4.41216 21C4.41576 21 4.41937 21 4.423 21C4.42662 21 4.43027 21 4.43392 21C4.43758 21 4.44125 21 4.44494 21C4.44863 21 4.45233 21 4.45604 21C4.45976 21 4.46349 21 4.46724 21C4.47098 21 4.47474 21 4.47852 21C4.48229 21 4.48608 21 4.48989 21C4.49369 21 4.49751 21 4.50134 21C4.50517 21 4.50902 21 4.51288 21C4.51675 21 4.52062 21 4.52451 21C4.5284 21 4.53231 21 4.53623 21C4.54015 21 4.54408 21 4.54803 21C4.55198 21 4.55594 21 4.55991 21C4.56389 21 4.56788 21 4.57188 21C4.57589 21 4.57991 21 4.58394 21C4.58797 21 4.59202 21 4.59608 21C4.60014 21 4.60421 21 4.6083 21C4.61238 21 4.61649 21 4.6206 21C4.62472 21 4.62885 21 4.63299 21C4.63713 21 4.64129 21 4.64546 21C4.64963 21 4.65381 21 4.65801 21C4.6622 21 4.66641 21 4.67064 21C4.67486 21 4.6791 21 4.68335 21C4.6876 21 4.69187 21 4.69614 21C4.70042 21 4.70471 21 4.70902 21C4.71332 21 4.71764 21 4.72197 21C4.7263 21 4.73064 21 4.735 21C4.73936 21 4.74373 21 4.74811 21C4.75249 21 4.75689 21 4.7613 21C4.76571 21 4.77013 21 4.77456 21C4.779 21 4.78344 21 4.78791 21C4.79237 21 4.79684 21 4.80133 21C4.80581 21 4.81031 21 4.81482 21C4.81933 21 4.82386 21 4.82839 21C4.83293 21 4.83748 21 4.84204 21C4.8466 21 4.85118 21 4.85577 21C4.86035 21 4.86495 21 4.86956 21C4.87418 21 4.8788 21 4.88344 21C4.88807 21 4.89272 21 4.89738 21C4.90204 21 4.90672 21 4.9114 21C4.91609 21 4.92079 21 4.9255 21C4.93021 21 4.93493 21 4.93966 21C4.9444 21 4.94914 21 4.9539 21C4.95866 21 4.96343 21 4.96821 21C4.97299 21 4.97779 21 4.98259 21C4.9874 21 4.99221 21 4.99704 21C5.00187 21 5.00671 21 5.01157 21C5.01642 21 5.02128 21 5.02616 21C5.03103 21 5.03592 21 5.04082 21C5.04572 21 5.05063 21 5.05555 21C5.06047 21 5.06541 21 5.07035 21C5.0753 21 5.08025 21 5.08522 21C5.09019 21 5.09517 21 5.10016 21C5.10515 21 5.11015 21 5.11516 21C5.12017 21 5.1252 21 5.13023 21C5.13527 21 5.14031 21 5.14537 21C5.15043 21 5.1555 21 5.16058 21C5.16565 21 5.17074 21 5.17585 21C5.18095 21 5.18606 21 5.19118 21C5.1963 21 5.20144 21 5.20658 21C5.21172 21 5.21688 21 5.22205 21C5.22721 21 5.23239 21 5.23757 21C5.24276 21 5.24796 21 5.25317 21C5.25837 21 5.26359 21 5.26882 21C5.27405 21 5.27929 21 5.28454 21C5.28979 21 5.29505 21 5.30032 21C5.30559 21 5.31087 21 5.31616 21C5.32146 21 5.32676 21 5.33207 21C5.33738 21 5.3427 21 5.34803 21C5.35337 21 5.35871 21 5.36406 21C5.36941 21 5.37478 21 5.38015 21C5.38552 21 5.3909 21 5.39629 21C5.40169 21 5.40709 21 5.4125 21C5.41791 21 5.42333 21 5.42876 21C5.4342 21 5.43964 21 5.44509 21C5.45054 21 5.456 21 5.46147 21C5.46694 21 5.47242 21 5.47791 21C5.4834 21 5.4889 21 5.4944 21C5.49991 21 5.50543 21 5.51096 21C5.51648 21 5.52202 21 5.52757 21C5.53311 21 5.53867 21 5.54423 21C5.5498 21 5.55537 21 5.56095 21C5.56654 21 5.57213 21 5.57773 21C5.58333 21 5.58894 21 5.59456 21C5.60018 21 5.60581 21 5.61144 21C5.61708 21 5.62273 21 5.62838 21C5.63404 21 5.6397 21 5.64538 21C5.65105 21 5.65673 21 5.66242 21C5.66811 21 5.67381 21 5.67952 21C5.68523 21 5.69094 21 5.69667 21C5.70239 21 5.70813 21 5.71387 21C5.71961 21 5.72536 21 5.73112 21C5.73688 21 5.74265 21 5.74843 21C5.7542 21 5.75999 21 5.76578 21C5.77157 21 5.77737 21 5.78318 21C5.78899 21 5.79481 21 5.80064 21C5.80646 21 5.8123 21 5.81814 21C5.82398 21 5.82983 21 5.83569 21C5.84155 21 5.84742 21 5.85329 21C5.85917 21 5.86505 21 5.87094 21C5.87683 21 5.88273 21 5.88863 21C5.89454 21 5.90045 21 5.90638 21C5.9123 21 5.91823 21 5.92416 21C5.9301 21 5.93605 21 5.942 21C5.94795 21 5.95391 21 5.95988 21C5.96585 21 5.97182 21 5.9778 21C5.98379 21 5.98978 21 5.99577 21C6.00177 21 6.00778 21 6.01379 21C6.0198 21 6.02582 21 6.03185 21C6.03788 21 6.04391 21 6.04995 21C6.05599 21 6.06204 21 6.0681 21C6.07415 21 6.08021 21 6.08628 21C6.09235 21 6.09843 21 6.10452 21C6.1106 21 6.11669 21 6.12279 21C6.12889 21 6.13499 21 6.1411 21C6.14721 21 6.15333 21 6.15946 21C6.16558 21 6.17171 21 6.17785 21C6.18399 21 6.19014 21 6.19629 21C6.20244 21 6.2086 21 6.21476 21C6.22093 21 6.2271 21 6.23328 21C6.23945 21 6.24564 21 6.25183 21C6.25802 21 6.26422 21 6.27042 21C6.27663 21 6.28284 21 6.28905 21C6.29527 21 6.30149 21 6.30772 21C6.31395 21 6.32018 21 6.32642 21C6.33266 21 6.33891 21 6.34517 21C6.35142 21 6.35768 21 6.36394 21C6.37021 21 6.37648 21 6.38276 21C6.38903 21 6.39532 21 6.4016 21C6.40789 21 6.41419 21 6.42049 21C6.42679 21 6.4331 21 6.43941 21C6.44572 21 6.45204 21 6.45836 21C6.46468 21 6.47101 21 6.47735 21C6.48368 21 6.49002 21 6.49637 21C6.50271 21 6.50906 21 6.51542 21C6.52177 21 6.52814 21 6.5345 21C6.54087 21 6.54724 21 6.55362 21C6.56 21 6.56638 21 6.57277 21C6.57916 21 6.58555 21 6.59195 21C6.59835 21 6.60475 21 6.61116 21C6.61757 21 6.62398 21 6.6304 21C6.63682 21 6.64324 21 6.64967 21C6.6561 21 6.66253 21 6.66897 21C6.67541 21 6.68185 21 6.6883 21C6.69475 21 6.7012 21 6.70766 21C6.71411 21 6.72058 21 6.72704 21C6.73351 21 6.73998 21 6.74646 21C6.75293 21 6.75941 21 6.7659 21C6.77238 21 6.77887 21 6.78537 21C6.79186 21 6.79836 21 6.80486 21C6.81136 21 6.81787 21 6.82438 21C6.83089 21 6.83741 21 6.84393 21C6.85045 21 6.85697 21 6.8635 21C6.87003 21 6.87656 21 6.88309 21C6.88963 21 6.89617 21 6.90271 21C6.90926 21 6.91581 21 6.92236 21C6.92891 21 6.93547 21 6.94202 21C6.94858 21 6.95515 21 6.96172 21C6.96828 21 6.97485 21 6.98143 21C6.988 21 6.99458 21 7.00116 21C7.00775 21 7.01433 21 7.02092 21C7.02751 21 7.0341 21 7.0407 21C7.0473 21 7.0539 21 7.0605 21C7.0671 21 7.07371 21 7.08032 21C7.08693 21 7.09354 21 7.10016 21C7.10678 21 7.11339 21 7.12002 21C7.12664 21 7.13327 21 7.1399 21C7.14653 21 7.15316 21 7.15979 21C7.16643 21 7.17307 21 7.17971 21C7.18635 21 7.193 21 7.19964 21C7.20629 21 7.21294 21 7.21959 21C7.22625 21 7.2329 21 7.23956 21C7.24622 21 7.25288 21 7.25955 21C7.26621 21 7.27288 21 7.27955 21C7.28622 21 7.29289 21 7.29957 21C7.30624 21 7.31292 21 7.3196 21C7.32628 21 7.33296 21 7.33964 21C7.34633 21 7.35302 21 7.35971 21C7.3664 21 7.37309 21 7.37978 21C7.38648 21 7.39317 21 7.39987 21C7.40657 21 7.41327 21 7.41997 21C7.42668 21 7.43338 21 7.44009 21C7.4468 21 7.4535 21 7.46022 21C7.46693 21 7.47364 21 7.48035 21C7.48707 21 7.49379 21 7.50051 21C7.50722 21 7.51395 21 7.52067 21C7.52739 21 7.53411 21 7.54084 21C7.54757 21 7.55429 21 7.56102 21C7.56775 21 7.57448 21 7.58122 21C7.58795 21 7.59468 21 7.60142 21C7.60815 21 7.61489 21 7.62163 21C7.62837 21 7.63511 21 7.64185 21C7.64859 21 7.65533 21 7.66208 21C7.66882 21 7.67556 21 7.68231 21C7.68906 21 7.6958 21 7.70255 21C7.7093 21 7.71605 21 7.7228 21C7.72955 21 7.7363 21 7.74306 21C7.74981 21 7.75656 21 7.76332 21C7.77007 21 7.77683 21 7.78359 21C7.79034 21 7.7971 21 7.80386 21C7.81062 21 7.81737 21 7.82413 21C7.83089 21 7.83765 21 7.84441 21C7.85118 21 7.85794 21 7.8647 21C7.87146 21 7.87822 21 7.88499 21C7.89175 21 7.89851 21 7.90528 21C7.91204 21 7.91881 21 7.92557 21C7.93234 21 7.9391 21 7.94587 21C7.95263 21 7.9594 21 7.96616 21C7.97293 21 7.9797 21 7.98646 21C7.99323 21 7.99999 21 8.00676 21C8.01353 21 8.02029 21 8.02706 21C8.03383 21 8.04059 21 8.04736 21C8.05413 21 8.06089 21 8.06766 21C8.07442 21 8.08119 21 8.08796 21C8.09472 21 8.10149 21 8.10825 21C8.11502 21 8.12178 21 8.12855 21C8.13531 21 8.14208 21 8.14884 21C8.1556 21 8.16237 21 8.16913 21C8.17589 21 8.18266 21 8.18942 21C8.19618 21 8.20294 21 8.2097 21C8.21646 21 8.22322 21 8.22998 21C8.23674 21 8.2435 21 8.25026 21C8.25701 21 8.26377 21 8.27053 21C8.27728 21 8.28404 21 8.29079 21C8.29755 21 8.3043 21 8.31105 21C8.3178 21 8.32456 21 8.33131 21C8.33806 21 8.34481 21 8.35155 21C8.3583 21 8.36505 21 8.37179 21C8.37854 21 8.38528 21 8.39203 21C8.39877 21 8.40551 21 8.41225 21C8.41899 21 8.42573 21 8.43247 21C8.43921 21 8.44594 21 8.45268 21C8.45941 21 8.46615 21 8.47288 21C8.47961 21 8.48634 21 8.49307 21C8.49979 21 8.50652 21 8.51325 21C8.51997 21 8.52669 21 8.53342 21C8.54014 21 8.54686 21 8.55358 21C8.56029 21 8.56701 21 8.57372 21C8.58044 21 8.58715 21 8.59386 21C8.60057 21 8.60728 21 8.61398 21C8.62069 21 8.62739 21 8.6341 21C8.6408 21 8.6475 21 8.65419 21C8.66089 21 8.66759 21 8.67428 21C8.68097 21 8.68766 21 8.69435 21C8.70104 21 8.70773 21 8.71441 21C8.72109 21 8.72777 21 8.73445 21C8.74113 21 8.74781 21 8.75448 21C8.76115 21 8.76782 21 8.77449 21C8.78116 21 8.78783 21 8.79449 21C8.80115 21 8.80781 21 8.81447 21C8.82113 21 8.82778 21 8.83443 21C8.84108 21 8.84773 21 8.85438 21C8.86103 21 8.86767 21 8.87431 21C8.88095 21 8.88758 21 8.89422 21C8.90085 21 8.90748 21 8.91411 21C8.92074 21 8.92736 21 8.93398 21C8.94061 21 8.94722 21 8.95384 21C8.96045 21 8.96706 21 8.97367 21C8.98028 21 8.98689 21 8.99349 21C9.00009 21 9.00669 21 9.01328 21C9.01988 21 9.02647 21 9.03305 21C9.03964 21 9.04623 21 9.0528 21C9.05939 21 9.06596 21 9.07253 21C9.07911 21 9.08568 21 9.09224 21C9.09881 21 9.10537 21 9.11193 21C9.11848 21 9.12504 21 9.13159 21C9.13814 21 9.14468 21 9.15122 21C9.15777 21 9.1643 21 9.17084 21C9.17737 21 9.1839 21 9.19043 21C9.19695 21 9.20347 21 9.20999 21C9.21651 21 9.22302 21 9.22953 21C9.23604 21 9.24254 21 9.24904 21C9.25554 21 9.26204 21 9.26853 21C9.27502 21 9.28151 21 9.28799 21C9.29447 21 9.30095 21 9.30743 21C9.3139 21 9.32037 21 9.32683 21C9.3333 21 9.33975 21 9.34621 21C9.35266 21 9.35911 21 9.36556 21C9.372 21 9.37845 21 9.38488 21C9.39132 21 9.39775 21 9.40417 21C9.4106 21 9.41702 21 9.42344 21C9.42985 21 9.43626 21 9.44267 21C9.44907 21 9.45547 21 9.46187 21C9.46827 21 9.47466 21 9.48104 21C9.48743 21 9.49381 21 9.50018 21C9.50656 21 9.51293 21 9.51929 21C9.52565 21 9.53201 21 9.53837 21C9.54472 21 9.55107 21 9.55741 21C9.56375 21 9.57009 21 9.57642 21C9.58275 21 9.58908 21 9.5954 21C9.60172 21 9.60803 21 9.61434 21C9.62065 21 9.62695 21 9.63325 21C9.63955 21 9.64584 21 9.65212 21C9.65841 21 9.66469 21 9.67096 21C9.67724 21 9.68351 21 9.68977 21C9.69603 21 9.70228 21 9.70853 21C9.71478 21 9.72103 21 9.72727 21C9.7335 21 9.73974 21 9.74596 21C9.75219 21 9.75841 21 9.76462 21C9.77083 21 9.77704 21 9.78324 21C9.78944 21 9.79563 21 9.80182 21C9.80801 21 9.81419 21 9.82036 21C9.82654 21 9.8327 21 9.83887 21C9.84503 21 9.85118 21 9.85733 21C9.86348 21 9.86962 21 9.87575 21C9.88189 21 9.88802 21 9.89414 21C9.90026 21 9.90637 21 9.91248 21C9.91859 21 9.92469 21 9.93079 21C9.93688 21 9.94297 21 9.94905 21C9.95513 21 9.9612 21 9.96727 21C9.97333 21 9.97939 21 9.98544 21C9.99149 21 9.99754 21 10.0036 21C10.0096 21 10.0156 21 10.0217 21C10.0277 21 10.0337 21 10.0397 21C10.0457 21 10.0517 21 10.0577 21C10.0637 21 10.0697 21 10.0757 21C10.0817 21 10.0876 21 10.0936 21C10.0996 21 10.1055 21 10.1115 21C10.1174 21 10.1233 21 10.1293 21C10.1352 21 10.1411 21 10.1471 21C10.153 21 10.1589 21 10.1648 21C10.1707 21 10.1766 21 10.1825 21C10.1884 21 10.1942 21 10.2001 21C10.206 21 10.2118 21 10.2177 21C10.2235 21 10.2294 21 10.2352 21C10.2411 21 10.2469 21 10.2527 21C10.2585 21 10.2643 21 10.2702 21C10.276 21 10.2818 21 10.2875 21C10.2933 21 10.2991 21 10.3049 21C10.3107 21 10.3164 21 10.3222 21C10.3279 21 10.3337 21 10.3394 21C10.3452 21 10.3509 21 10.3566 21C10.3623 21 10.368 21 10.3737 21C10.3794 21 10.3851 21 10.3908 21C10.3965 21 10.4022 21 10.4078 21C10.4135 21 10.4192 21 10.4248 21C10.4305 21 10.4361 21 10.4418 21C10.4474 21 10.453 21 10.4586 21C10.4642 21 10.4698 21 10.4754 21C10.481 21 10.4866 21 10.4922 21C10.4978 21 10.5033 21 10.5089 21C10.5145 21 10.52 21 10.5256 21C10.5311 21 10.5366 21 10.5421 21C10.5477 21 10.5532 21 10.5587 21C10.5642 21 10.5697 21 10.5752 21C10.5807 21 10.5861 21 10.5916 21C10.5971 21 10.6025 21 10.608 21C10.6134 21 10.6188 21 10.6243 21C10.6297 21 10.6351 21 10.6405 21C10.6459 21 10.6513 21 10.6567 21C10.6621 21 10.6675 21 10.6728 21C10.6782 21 10.6836 21 10.6889 21C10.6942 21 10.6996 21 10.7049 21C10.7102 21 10.7156 21 10.7209 21C10.7262 21 10.7315 21 10.7367 21C10.742 21 10.7473 21 10.7526 21C10.7578 21 10.7631 21 10.7683 21C10.7736 21 10.7788 21 10.784 21C10.7893 21 10.7945 21 10.7997 21C10.8049 21 10.8101 21 10.8153 21C10.8204 21 10.8256 21 10.8308 21C10.8359 21 10.8411 21 10.8462 21C10.8514 21 10.8565 21 10.8616 21C10.8667 21 10.8718 21 10.8769 21C10.882 21 10.8871 21 10.8922 21C10.8972 21 10.9023 21 10.9074 21C10.9124 21 10.9174 21 10.9225 21C10.9275 21 10.9325 21 10.9375 21C10.9425 21 10.9475 21 10.9525 21C10.9575 21 10.9625 21 10.9674 21C10.9724 21 10.9773 21 10.9823 21C10.9872 21 10.9921 21 10.9971 21C11.002 21 11.0069 21 11.0118 21C11.0167 21 11.0215 21 11.0264 21C11.0313 21 11.0361 21 11.041 21C11.0458 21 11.0507 21 11.0555 21C11.0603 21 11.0651 21 11.0699 21C11.0747 21 11.0795 21 11.0843 21C11.0891 21 11.0938 21 11.0986 21C11.1033 21 11.1081 21 11.1128 21C11.1175 21 11.1222 21 11.1269 21C11.1316 21 11.1363 21 11.141 21C11.1457 21 11.1504 21 11.155 21C11.1597 21 11.1643 21 11.1689 21C11.1736 21 11.1782 21 11.1828 21C11.1874 21 11.192 21 11.1966 21C11.2012 21 11.2057 21 11.2103 21C11.2148 21 11.2194 21 11.2239 21C11.2284 21 11.2329 21 11.2375 21C11.242 21 11.2464 21 11.2509 21C11.2554 21 11.2599 21 11.2643 21C11.2688 21 11.2732 21 11.2776 21C11.2821 21 11.2865 21 11.2909 21C11.2953 21 11.2997 21 11.3041 21C11.3084 21 11.3128 21 11.3171 21C11.3215 21 11.3258 21 11.3302 21C11.3345 21 11.3388 21 11.3431 21C11.3474 21 11.3517 21 11.3559 21C11.3602 21 11.3645 21 11.3687 21C11.373 21 11.3772 21 11.3814 21C11.3856 21 11.3898 21 11.394 21C11.3982 21 11.4024 21 11.4065 21C11.4107 21 11.4149 21 11.419 21C11.4231 21 11.4272 21 11.4313 21C11.4355 21 11.4396 21 11.4436 21C11.4477 21 11.4518 21 11.4558 21C11.4599 21 11.4639 21 11.4679 21C11.472 21 11.476 21 11.48 21C11.484 21 11.488 21 11.4919 21C11.4959 21 11.4998 21 11.5038 21C11.5077 21 11.5117 21 11.5156 21C11.5195 21 11.5234 21 11.5273 21C11.5311 21 11.535 21 11.5389 21C11.5427 21 11.5466 21 11.5504 21C11.5542 21 11.558 21 11.5618 21C11.5656 21 11.5694 21 11.5732 21C11.5769 21 11.5807 21 11.5844 21C11.5882 21 11.5919 21 11.5956 21C11.5993 21 11.603 21 11.6067 21C11.6103 21 11.614 21 11.6177 21C11.6213 21 11.6249 21 11.6286 21C11.6322 21 11.6358 21 11.6394 21C11.643 21 11.6465 21 11.6501 21C11.6536 21 11.6572 21 11.6607 21C11.6642 21 11.6678 21 11.6713 21C11.6748 21 11.6782 21 11.6817 21C11.6852 21 11.6886 21 11.6921 21C11.6955 21 11.6989 21 11.7023 21C11.7057 21 11.7091 21 11.7125 21C11.7159 21 11.7192 21 11.7226 21C11.7259 21 11.7292 21 11.7326 21C11.7359 21 11.7392 21 11.7424 21C11.7457 21 11.749 21 11.7522 21C11.7555 21 11.7587 21 11.7619 21C11.7652 21 11.7684 21 11.7715 21C11.7747 21 11.7779 21 11.7811 21C11.7842 21 11.7873 21 11.7905 21C11.7936 21 11.7967 21 11.7998 21C11.8029 21 11.8059 21 11.809 21C11.8121 21 11.8151 21 11.8181 21C11.8212 21 11.8242 21 11.8271 21C11.8301 21 11.8331 21 11.8361 21C11.839 21 11.842 21 11.8449 21C11.8478 21 11.8507 21 11.8536 21C11.8565 21 11.8594 21 11.8623 21C11.8651 21 11.868 21 11.8708 21C11.8736 21 11.8764 21 11.8792 21C11.882 21 11.8848 21 11.8875 21C11.8903 21 11.893 21 11.8958 21C11.8985 21 11.9012 21 11.9039 21C11.9066 21 11.9092 21 11.9119 21C11.9146 21 11.9172 21 11.9198 21C11.9224 21 11.925 21 11.9276 21C11.9302 21 11.9328 21 11.9353 21C11.9379 21 11.9404 21 11.9429 21C11.9455 21 11.948 21 11.9504 21C11.9529 21 11.9554 21 11.9578 21C11.9603 21 11.9627 21 11.9651 21C11.9675 21 11.9699 21 11.9723 21C11.9747 21 11.9771 21 11.9794 21C11.9817 21 11.9841 21 11.9864 21C11.9887 21 11.991 21 11.9932 21C11.9955 21 11.9978 21 12 21V19ZM4.70714 20.7071C5.70872 19.7055 6.26653 19.1498 7.01339 18.0682L5.36761 16.9318C4.73347 17.8502 4.29128 18.2945 3.29291 19.2929L4.70714 20.7071Z" fill="white"/>
</svg>
