<svg width="24" height="24" viewBox="0 0 24 24" fill="none" xmlns="http://www.w3.org/2000/svg">
<mask id="path-1-inside-1_7028_30270" fill="white">
<path fill-rule="evenodd" clip-rule="evenodd" d="M10.5 3.5C8.84315 3.5 7.5 4.84315 7.5 6.5H9.5C9.5 5.94772 9.94772 5.5 10.5 5.5H16.5C17.6046 5.5 18.5 6.39543 18.5 7.5V13.5C18.5 14.0523 18.0523 14.5 17.5 14.5V16.5C19.1569 16.5 20.5 15.1569 20.5 13.5V7.5C20.5 5.29086 18.7091 3.5 16.5 3.5H10.5ZM6.5 9.5H13.5C14.0523 9.5 14.5 9.94771 14.5 10.5V17.5C14.5 18.0523 14.0523 18.5 13.5 18.5H6.5C5.94772 18.5 5.5 18.0523 5.5 17.5V10.5C5.5 9.94772 5.94772 9.5 6.5 9.5ZM3.5 10.5C3.5 8.84315 4.84315 7.5 6.5 7.5H13.5C15.1569 7.5 16.5 8.84315 16.5 10.5V17.5C16.5 19.1569 15.1569 20.5 13.5 20.5H6.5C4.84315 20.5 3.5 19.1569 3.5 17.5V10.5Z"/>
</mask>
<path d="M7.5 6.5H5.5V8.5H7.5V6.5ZM9.5 6.5V8.5H11.5V6.5H9.5ZM17.5 14.5V12.5H15.5V14.5H17.5ZM17.5 16.5H15.5V18.5H17.5V16.5ZM9.5 6.5C9.5 5.94772 9.94772 5.5 10.5 5.5V1.5C7.73858 1.5 5.5 3.73858 5.5 6.5H9.5ZM9.5 4.5H7.5V8.5H9.5V4.5ZM10.5 3.5C8.84315 3.5 7.5 4.84315 7.5 6.5H11.5C11.5 7.05228 11.0523 7.5 10.5 7.5V3.5ZM16.5 3.5H10.5V7.5H16.5V3.5ZM20.5 7.5C20.5 5.29086 18.7091 3.5 16.5 3.5V7.5H20.5ZM20.5 13.5V7.5H16.5V13.5H20.5ZM17.5 16.5C19.1569 16.5 20.5 15.1569 20.5 13.5H16.5C16.5 12.9477 16.9477 12.5 17.5 12.5V16.5ZM19.5 16.5V14.5H15.5V16.5H19.5ZM18.5 13.5C18.5 14.0523 18.0523 14.5 17.5 14.5V18.5C20.2614 18.5 22.5 16.2614 22.5 13.5H18.5ZM18.5 7.5V13.5H22.5V7.5H18.5ZM16.5 5.5C17.6046 5.5 18.5 6.39543 18.5 7.5H22.5C22.5 4.18629 19.8137 1.5 16.5 1.5V5.5ZM10.5 5.5H16.5V1.5H10.5V5.5ZM13.5 7.5H6.5V11.5H13.5V7.5ZM16.5 10.5C16.5 8.84314 15.1569 7.5 13.5 7.5V11.5C12.9477 11.5 12.5 11.0523 12.5 10.5H16.5ZM16.5 17.5V10.5H12.5V17.5H16.5ZM13.5 20.5C15.1569 20.5 16.5 19.1569 16.5 17.5H12.5C12.5 16.9477 12.9477 16.5 13.5 16.5V20.5ZM6.5 20.5H13.5V16.5H6.5V20.5ZM3.5 17.5C3.5 19.1569 4.84315 20.5 6.5 20.5V16.5C7.05228 16.5 7.5 16.9477 7.5 17.5H3.5ZM3.5 10.5V17.5H7.5V10.5H3.5ZM6.5 7.5C4.84315 7.5 3.5 8.84315 3.5 10.5H7.5C7.5 11.0523 7.05228 11.5 6.5 11.5V7.5ZM6.5 5.5C3.73858 5.5 1.5 7.73858 1.5 10.5H5.5C5.5 9.94772 5.94772 9.5 6.5 9.5V5.5ZM13.5 5.5H6.5V9.5H13.5V5.5ZM18.5 10.5C18.5 7.73858 16.2614 5.5 13.5 5.5V9.5C14.0523 9.5 14.5 9.94772 14.5 10.5H18.5ZM18.5 17.5V10.5H14.5V17.5H18.5ZM13.5 22.5C16.2614 22.5 18.5 20.2614 18.5 17.5H14.5C14.5 18.0523 14.0523 18.5 13.5 18.5V22.5ZM6.5 22.5H13.5V18.5H6.5V22.5ZM1.5 17.5C1.5 20.2614 3.73858 22.5 6.5 22.5V18.5C5.94772 18.5 5.5 18.0523 5.5 17.5H1.5ZM1.5 10.5V17.5H5.5V10.5H1.5Z" fill="#FFFF00" mask="url(#path-1-inside-1_7028_30270)"/>
</svg>
