<svg width="24" height="24" viewBox="0 0 24 24" fill="none" xmlns="http://www.w3.org/2000/svg">
<path fill-rule="evenodd" clip-rule="evenodd" d="M9 3C8.44772 3 8 3.44772 8 4V6H6H4C3.44772 6 3 6.44772 3 7C3 7.55228 3.44772 8 4 8H5.0804L6.09441 20.0836C6.13788 20.6017 6.57104 21 7.09091 21H16.9091C17.429 21 17.8621 20.6017 17.9056 20.0836L18.9196 8H20C20.5523 8 21 7.55228 21 7C21 6.44772 20.5523 6 20 6H18H16V4C16 3.44772 15.5523 3 15 3H9ZM14 6V5H10V6H14ZM9 8H7.08743L8.01051 19H15.9895L16.9126 8H15H9Z" fill="#FFFF00"/>
</svg>
