<svg width="14" height="14" viewBox="0 0 14 14" fill="none" xmlns="http://www.w3.org/2000/svg">
<path fill-rule="evenodd" clip-rule="evenodd" d="M0 1C0 0.447715 0.447715 0 1 0H13C13.5523 0 14 0.447715 14 1C14 1.55228 13.5523 2 13 2H1C0.447715 2 0 1.55228 0 1ZM0 7C0 6.44772 0.447715 6 1 6H13C13.5523 6 14 6.44772 14 7C14 7.55228 13.5523 8 13 8H1C0.447715 8 0 7.55228 0 7ZM1 12C0.447715 12 0 12.4477 0 13C0 13.5523 0.447715 14 1 14H13C13.5523 14 14 13.5523 14 13C14 12.4477 13.5523 12 13 12H1Z" fill="#FFFF00"/>
</svg>
