<svg width="24" height="24" viewBox="0 0 24 24" fill="none" xmlns="http://www.w3.org/2000/svg">
<path fill-rule="evenodd" clip-rule="evenodd" d="M4.43815 12.3447C4.34526 12.2185 4.26315 12.1028 4.19214 12C4.26315 11.8972 4.34526 11.7815 4.43815 11.6553C4.82752 11.1264 5.39981 10.4224 6.13003 9.72139C7.60944 8.30115 9.62245 7 12 7C14.3775 7 16.3906 8.30115 17.87 9.72139C18.6002 10.4224 19.1725 11.1264 19.5619 11.6553C19.6547 11.7815 19.7369 11.8972 19.8079 12C19.7369 12.1028 19.6547 12.2185 19.5619 12.3447C19.1725 12.8736 18.6002 13.5776 17.87 14.2786C16.3906 15.6988 14.3775 17 12 17C9.62245 17 7.60944 15.6988 6.13003 14.2786C5.39981 13.5776 4.82752 12.8736 4.43815 12.3447ZM21.8634 11.4955C21.8636 11.4958 21.8638 11.4961 21 12C21.8638 12.5039 21.8636 12.5042 21.8634 12.5045L21.8629 12.5053L21.8618 12.5073L21.8585 12.5129L21.848 12.5305C21.8393 12.5451 21.8271 12.5652 21.8116 12.5906C21.7805 12.6412 21.7358 12.7127 21.6778 12.8021C21.5619 12.9807 21.3925 13.2315 21.1725 13.5303C20.7338 14.1264 20.0873 14.9224 19.255 15.7214C17.6094 17.3012 15.1225 19 12 19C8.87755 19 6.39056 17.3012 4.74497 15.7214C3.91269 14.9224 3.26623 14.1264 2.82748 13.5303C2.6075 13.2315 2.43814 12.9807 2.32223 12.8021C2.26424 12.7127 2.21952 12.6412 2.18842 12.5906C2.17287 12.5652 2.16072 12.5451 2.152 12.5305L2.14152 12.5129L2.13822 12.5073L2.13706 12.5053L2.1366 12.5045C2.1364 12.5042 2.13622 12.5039 3 12C2.13622 11.4961 2.1364 11.4958 2.1366 11.4955L2.13706 11.4947L2.13822 11.4927L2.14152 11.4871L2.152 11.4695C2.16072 11.4549 2.17287 11.4348 2.18842 11.4094C2.21952 11.3588 2.26424 11.2873 2.32223 11.1979C2.43814 11.0193 2.6075 10.7685 2.82748 10.4697C3.26623 9.87363 3.91269 9.0776 4.74497 8.27861C6.39056 6.69885 8.87755 5 12 5C15.1225 5 17.6094 6.69885 19.255 8.27861C20.0873 9.0776 20.7338 9.87363 21.1725 10.4697C21.3925 10.7685 21.5619 11.0193 21.6778 11.1979C21.7358 11.2873 21.7805 11.3588 21.8116 11.4094C21.8271 11.4348 21.8393 11.4549 21.848 11.4695L21.8585 11.4871L21.8618 11.4927L21.8629 11.4947L21.8634 11.4955ZM21 12L21.8638 11.4961C22.0454 11.8075 22.0454 12.1925 21.8638 12.5039L21 12ZM2.13622 11.4961L3 12L2.13622 12.5039C1.95459 12.1925 1.95459 11.8075 2.13622 11.4961ZM12 15C13.6569 15 15 13.6569 15 12C15 10.3431 13.6569 9 12 9C10.3431 9 9 10.3431 9 12C9 13.6569 10.3431 15 12 15Z" fill="#FFFF00"/>
</svg>
