<svg width="24" height="24" viewBox="0 0 24 24" fill="none" xmlns="http://www.w3.org/2000/svg">
<path fill-rule="evenodd" clip-rule="evenodd" d="M14.1541 3.24362C14.4638 3.51142 14.5789 3.94093 14.4448 4.32773C14.2267 4.95653 13.9873 6.05771 14.0837 7.13236C14.1786 8.18912 14.5768 9.08818 15.4995 9.62018C17.1399 10.566 18.0474 11.6044 18.5251 12.5914C19 13.5726 19 14.4067 19 14.8055V14.8108C19 18.3604 15.7248 21 12 21C8.27522 21 5 18.3604 5 14.8108C5 14.3386 5.09378 13.6218 5.35579 12.8707C5.61867 12.117 6.07445 11.2622 6.84585 10.595C7.26358 10.2337 7.89508 10.2795 8.25636 10.6972C8.61764 11.1149 8.57188 11.7464 8.15415 12.1077C7.72555 12.4784 7.43133 12.9929 7.24421 13.5294C7.05622 14.0683 7 14.5623 7 14.8108C7 16.9931 9.09736 19 12 19C14.9026 19 17 16.9931 17 14.8108C17 14.4867 16.9978 14.0266 16.7249 13.4627C16.4526 12.9001 15.8601 12.1367 14.5005 11.3528C12.8238 10.3861 12.222 8.7626 12.0917 7.31117C12.0594 6.95086 12.0548 6.59314 12.0705 6.24656C11.8392 6.47302 11.6247 6.71724 11.4426 6.97574C11.119 7.43542 10.9258 7.90077 10.8872 8.36426C10.8503 8.80536 10.9465 9.31933 11.3226 9.91655C11.7928 10.5529 12.4612 12.0597 11.9607 13.7912C11.8073 14.3218 11.2529 14.6276 10.7223 14.4742C10.1917 14.3208 9.88596 13.7664 10.0393 13.2358C10.3278 12.2377 9.90371 11.3509 9.70799 11.097C9.69054 11.0744 9.67408 11.051 9.65863 11.027C9.05035 10.08 8.81692 9.12255 8.89409 8.19793C8.96999 7.28844 9.33936 6.48893 9.80736 5.82429C10.7278 4.51705 12.1334 3.58255 13.0394 3.1124C13.4028 2.92383 13.8444 2.97582 14.1541 3.24362Z" fill="white"/>
</svg>
