<svg width="18" height="18" viewBox="0 0 18 18" fill="none" xmlns="http://www.w3.org/2000/svg">
<path fill-rule="evenodd" clip-rule="evenodd" d="M2.04568 8.19592C2.01551 8.45977 2 8.72808 2 9C2 10.8004 2.67967 12.442 3.79641 13.6823L5.43025 11.7216L4.5138 8.9011L2.04568 8.19592ZM2.55587 6.26166L4.71363 6.87816L8 4.49047V2.07089C5.54247 2.42241 3.49671 4.05039 2.55587 6.26166ZM9 0C4.02944 0 0 4.02944 0 9C0 13.9706 4.02944 18 9 18C13.9706 18 18 13.9706 18 9C18 4.02944 13.9706 0 9 0ZM10 2.07089V4.49047L13.2864 6.87816L15.4441 6.26166C14.5033 4.05039 12.4575 2.42241 10 2.07089ZM15.9543 8.19592L13.4862 8.9011L12.5697 11.7216L14.2036 13.6823C15.3203 12.442 16 10.8004 16 9C16 8.72808 15.9845 8.45977 15.9543 8.19592ZM12.6677 14.9633L11.2283 13.2361H6.77165L5.33226 14.9633C6.39885 15.6207 7.65513 16 9 16C10.3449 16 11.6012 15.6207 12.6677 14.9633ZM6.37134 8.1459L7.3754 11.2361H10.6246L11.6287 8.1459L9 6.23607L6.37134 8.1459Z" fill="#808080"/>
</svg>
