<svg width="24" height="24" viewBox="0 0 24 24" fill="none" xmlns="http://www.w3.org/2000/svg">
<path fill-rule="evenodd" clip-rule="evenodd" d="M7.87475 7.03201C7.51347 7.09869 7.16426 7.26916 6.86364 7.53985C6.46491 7.89889 6.17702 8.41328 6.06944 9.00433L5 14.8753V15.9252C5 15.9252 5 15.9251 5 15.9252C5.00006 16.1574 5.0632 16.378 5.17279 16.5581C5.282 16.7375 5.42783 16.8623 5.58054 16.9318C5.73167 17.0005 5.89164 17.0166 6.04481 16.9832C6.19906 16.9495 6.3548 16.8634 6.48631 16.719C6.49592 16.7085 6.50577 16.6981 6.51583 16.688L8.89023 14.2956C9.07798 14.1064 9.33347 14 9.6 14H14.4C14.6665 14 14.9219 14.1063 15.1096 14.2954L17.484 16.687C17.4941 16.6971 17.504 16.7075 17.5137 16.7181C17.6452 16.8625 17.8009 16.9486 17.9552 16.9823C18.1084 17.0157 18.2683 16.9997 18.4195 16.9309C18.5722 16.8615 18.718 16.7366 18.8272 16.5572C18.9368 16.3771 18.9999 16.1567 19 15.9244C19 15.9244 19 15.9245 19 15.9244V14.8753L17.9306 9.00447C17.823 8.41341 17.5351 7.89889 17.1364 7.53985C16.8357 7.26916 16.4865 7.09869 16.1252 7.03201L15.336 7.743C15.1523 7.90844 14.9139 8 14.6667 8H9.33333C9.08614 8 8.84771 7.90844 8.66404 7.743L7.87475 7.03201ZM5.52534 6.0536C6.27283 5.38052 7.22544 5.00011 8.22309 5C8.47032 4.99997 8.7088 5.09153 8.89249 5.257L9.71732 6H14.2827L15.1075 5.257C15.2912 5.09153 15.5297 4.99997 15.7769 5C16.7746 5.00011 17.7272 5.38052 18.4747 6.0536C19.22 6.72473 19.7158 7.64395 19.8982 8.64605C19.8982 8.6461 19.8982 8.64601 19.8982 8.64605L20.9838 14.6058C20.9946 14.6649 21 14.7249 21 14.785V15.9244C20.9999 16.5128 20.8413 17.0947 20.5357 17.597C20.2296 18.0999 19.7853 18.5069 19.2475 18.7515C18.7081 18.9968 18.1083 19.0629 17.5285 18.9362C16.9575 18.8115 16.446 18.509 16.0511 18.0824L13.9837 16H10.0164L7.94893 18.0832C7.55404 18.5099 7.04255 18.8124 6.47151 18.9371C5.89167 19.0637 5.29186 18.9976 4.7525 18.7523C4.21472 18.5077 3.77038 18.1007 3.46431 17.5978C3.15865 17.0956 3.00008 16.5138 3 15.9255V14.785C3 14.7249 3.00542 14.6649 3.01619 14.6058L4.10176 8.64619C4.10177 8.64614 4.10176 8.64623 4.10176 8.64619C4.28419 7.64408 4.78002 6.72473 5.52534 6.0536Z" fill="black"/>
</svg>
