<svg width="18" height="14" viewBox="0 0 18 14" fill="none" xmlns="http://www.w3.org/2000/svg">
<path fill-rule="evenodd" clip-rule="evenodd" d="M4.87475 2.03201C4.51347 2.09869 4.16426 2.26916 3.86364 2.53985C3.46491 2.89889 3.17702 3.41328 3.06944 4.00433L2 9.87535V10.9252C2 10.9252 2 10.9251 2 10.9252C2.00006 11.1574 2.0632 11.378 2.17279 11.5581C2.282 11.7375 2.42783 11.8623 2.58054 11.9318C2.73167 12.0005 2.89164 12.0166 3.04481 11.9832C3.19906 11.9495 3.3548 11.8634 3.48631 11.719C3.49592 11.7085 3.50577 11.6981 3.51583 11.688L5.89023 9.29557C6.07798 9.1064 6.33347 9 6.6 9H11.4C11.6665 9 11.9219 9.10635 12.1096 9.29544L14.484 11.687C14.4941 11.6971 14.504 11.7075 14.5137 11.7181C14.6452 11.8625 14.8009 11.9486 14.9552 11.9823C15.1084 12.0157 15.2683 11.9997 15.4195 11.9309C15.5722 11.8615 15.718 11.7366 15.8272 11.5572C15.9368 11.3771 15.9999 11.1567 16 10.9244C16 10.9244 16 10.9245 16 10.9244V9.87535L14.9306 4.00447C14.823 3.41341 14.5351 2.89889 14.1364 2.53985C13.8357 2.26916 13.4865 2.09869 13.1252 2.03201L12.336 2.743C12.1523 2.90844 11.9139 3 11.6667 3H6.33333C6.08614 3 5.84771 2.90844 5.66404 2.743L4.87475 2.03201ZM2.52534 1.0536C3.27283 0.380524 4.22544 0.000113851 5.22309 6.53667e-09C5.47032 -2.82461e-05 5.7088 0.0915288 5.89249 0.256999L6.71732 1H11.2827L12.1075 0.256999C12.2912 0.0915288 12.5297 -2.82461e-05 12.7769 6.53667e-09C13.7746 0.000113851 14.7272 0.380524 15.4747 1.0536C16.22 1.72473 16.7158 2.64395 16.8982 3.64605C16.8982 3.6461 16.8982 3.64601 16.8982 3.64605L17.9838 9.6058C17.9946 9.66493 18 9.72491 18 9.78501V10.9244C17.9999 11.5128 17.8413 12.0947 17.5357 12.597C17.2296 13.0999 16.7853 13.5069 16.2475 13.7515C15.7081 13.9968 15.1083 14.0629 14.5285 13.9362C13.9575 13.8115 13.446 13.509 13.0511 13.0824L10.9837 11H7.01643L4.94893 13.0832C4.55404 13.5099 4.04255 13.8124 3.47151 13.9371C2.89167 14.0637 2.29186 13.9976 1.7525 13.7523C1.21472 13.5077 0.770376 13.1007 0.464311 12.5978C0.158652 12.0956 8.44598e-05 11.5138 0 10.9255V9.78501C0 9.72491 0.00541812 9.66493 0.0161885 9.6058L1.10176 3.64619C1.10177 3.64614 1.10176 3.64623 1.10176 3.64619C1.28419 2.64408 1.78002 1.72473 2.52534 1.0536Z" fill="#FFFF00"/>
</svg>
