<svg width="18" height="16" viewBox="0 0 18 16" fill="none" xmlns="http://www.w3.org/2000/svg">
<path fill-rule="evenodd" clip-rule="evenodd" d="M9.00003 1.83428C8.74697 1.52092 8.44104 1.20626 8.07686 0.927673C7.51326 0.496527 6.80018 0.144906 5.9329 0.0353383C5.06431 -0.0743948 4.10482 0.0667563 3.06248 0.52441C0.628731 1.59299 -0.516387 4.39174 0.225587 7.36443C0.970848 10.3503 3.57057 13.5245 8.57044 15.903C8.84223 16.0323 9.15781 16.0323 9.4296 15.903C14.4295 13.5245 17.0292 10.3502 17.7745 7.36435C18.5165 4.39164 17.3713 1.59284 14.9375 0.52435C13.8952 0.0667516 12.9357 -0.074364 12.0671 0.0353839C11.1998 0.144967 10.4868 0.496581 9.92317 0.927719C9.559 1.20629 9.25309 1.52093 9.00003 1.83428ZM5.68222 2.01957C5.22287 1.96153 4.62731 2.02164 3.86653 2.35567C2.51605 2.94862 1.60579 4.6354 2.16606 6.8801C2.70557 9.04163 4.65544 11.7131 9.00002 13.8874C13.3446 11.7131 15.2945 9.04158 15.834 6.88001C16.3943 4.63527 15.484 2.94852 14.1335 2.35565C13.3727 2.02165 12.7772 1.96156 12.3178 2.01961C11.8571 2.07782 11.4694 2.26299 11.1383 2.51623C10.4476 3.04463 10.0515 3.83518 9.93007 4.14257C9.77925 4.52431 9.41047 4.77512 9.00002 4.77512C8.58957 4.77512 8.2208 4.52431 8.06998 4.14257C7.94853 3.83517 7.55244 3.04459 6.86169 2.51618C6.53064 2.26293 6.14289 2.07776 5.68222 2.01957Z" fill="white"/>
</svg>
