<svg width="24" height="24" viewBox="0 0 24 24" fill="none" xmlns="http://www.w3.org/2000/svg">
<path fill-rule="evenodd" clip-rule="evenodd" d="M12 4C7.58172 4 4 7.58172 4 12C4 16.4183 7.58172 20 12 20C16.4183 20 20 16.4183 20 12C20 7.58172 16.4183 4 12 4ZM2 12C2 6.47715 6.47715 2 12 2C17.5228 2 22 6.47715 22 12C22 17.5228 17.5228 22 12 22C6.47715 22 2 17.5228 2 12ZM12 8C11.4477 8 11 8.44772 11 9V9.5C11 10.0523 10.5523 10.5 10 10.5C9.44772 10.5 9 10.0523 9 9.5V9C9 7.34315 10.3431 6 12 6C13.6569 6 15 7.34315 15 9V10.65C15 11.8794 14.1467 12.9096 13 13.1804V14C13 14.5523 12.5523 15 12 15C11.4477 15 11 14.5523 11 14V12.65C11 11.8768 11.6268 11.25 12.4 11.25C12.7314 11.25 13 10.9814 13 10.65V9C13 8.44772 12.5523 8 12 8ZM12 18C12.5523 18 13 17.5523 13 17C13 16.4477 12.5523 16 12 16C11.4477 16 11 16.4477 11 17C11 17.5523 11.4477 18 12 18Z" fill="black"/>
</svg>
