<svg width="309" height="100" viewBox="0 0 309 100" fill="none" xmlns="http://www.w3.org/2000/svg">
<path d="M308 40V99H1V40C1 18.4609 18.4609 1 40 1H154.5H269C290.539 1 308 18.4609 308 40Z" fill="#999999" stroke="#666666" stroke-width="2"/>
<rect x="2" y="98" width="14" height="2" fill="#999999"/>
<rect x="293" y="98" width="14" height="2" fill="#999999"/>
<rect x="135.5" y="12.5" width="39" height="5" rx="2.5" stroke="#808080"/>
<rect x="187.5" y="12.5" width="5" height="5" rx="2.5" stroke="#808080"/>
<path d="M16 43C16 29.1929 27.1929 18 41 18H268C281.807 18 293 29.1929 293 43V100H16V43Z" fill="#666666"/>
<path d="M70 18H239L238.571 22.7202C237.681 32.5067 229.476 40 219.649 40H89.3511C79.5242 40 71.3188 32.5067 70.4291 22.7202L70 18Z" fill="#999999"/>
<path d="M20 52C20 49.7909 21.7909 48 24 48H285C287.209 48 289 49.7909 289 52V92C289 94.2091 287.209 96 285 96H24C21.7909 96 20 94.2091 20 92V52Z" fill="white"/>
</svg>
