<svg width="48" height="48" viewBox="0 0 48 48" fill="none" xmlns="http://www.w3.org/2000/svg">
<path fill-rule="evenodd" clip-rule="evenodd" d="M7.02347 7.03647C11.5207 2.53578 17.621 0.00486802 23.9835 0H24.0018C27.1536 0 30.2746 0.620853 33.1864 1.8271C36.0982 3.03335 38.7439 4.80137 40.9724 7.0302C43.2009 9.25902 44.9685 11.905 46.1743 14.817C47.3801 17.729 48.0005 20.8501 48 24.0019C48 30.3666 45.4716 36.4706 40.9711 40.9711C36.4706 45.4716 30.3665 48 24.0018 48C17.6368 48 11.5324 45.4718 7.03127 40.9713C2.53016 36.4709 0.000973993 30.3669 0 24.0019C0 17.6393 2.52622 11.5372 7.02347 7.03647ZM15.9253 4.88484C13.4604 5.92481 11.2213 7.4342 9.33261 9.32896C7.43587 11.2238 5.92531 13.4691 4.88484 15.94C3.80157 18.4958 3.24686 21.2444 3.25411 24.0202C3.24686 26.7961 3.80157 29.5446 4.88484 32.1004C5.92531 34.5713 7.43587 36.8166 9.33261 38.7115C11.2213 40.6062 13.4604 42.1156 15.9253 43.1556C18.4813 44.2381 21.2297 44.7928 24.0055 44.7863C26.7812 44.7924 29.5296 44.2378 32.0857 43.1556C34.5561 42.1159 36.8013 40.6066 38.6968 38.7115C40.5936 36.8174 42.1031 34.5719 43.1409 32.1004C44.2241 29.5446 44.7789 26.7961 44.7716 24.0202C44.7789 21.2444 44.2241 18.4958 43.1409 15.94C42.1031 13.4685 40.5936 11.223 38.6968 9.32896C36.8013 7.43383 34.5561 5.92454 32.0857 4.88484C29.5296 3.80264 26.7812 3.24799 24.0055 3.25413C21.2297 3.24759 18.4813 3.80225 15.9253 4.88484ZM11.6437 30.3792C11.573 30.3093 11.573 30.1679 11.573 29.882L11.5988 29.8306C11.602 29.5917 11.6009 29.3524 11.5998 29.1131C11.5958 28.2853 11.5919 27.4566 11.7714 26.6389C11.944 25.9306 12.2345 25.2565 12.6308 24.6446C15.072 20.6975 17.5095 16.7492 19.9434 12.7998C20.5384 11.8375 21.2656 11.0478 22.4446 10.8495C22.8176 10.7919 23.1946 10.7636 23.5721 10.765H29.8159C30.1097 10.765 30.1832 10.8495 30.1832 11.1543V18.4228V25.6913C30.1832 26.0255 30.2787 26.0917 30.5945 26.0917C30.9618 26.0917 31.3291 26.0937 31.6964 26.0957C32.4309 26.0998 33.1655 26.1039 33.9001 26.0917C34.1939 26.0696 34.2673 26.1651 34.2673 26.4369C34.2527 27.6612 34.2527 28.8855 34.2673 30.1097C34.271 30.3815 34.1792 30.4293 33.9331 30.4293H30.5358C30.2566 30.4293 30.1905 30.5247 30.1905 30.7965V36.3058C30.1905 36.6069 30.1134 36.673 29.8232 36.673C28.1313 36.6583 26.4381 36.6583 24.7437 36.673C24.4132 36.6767 24.3104 36.6216 24.3104 36.2543V30.903C24.314 30.5578 24.2406 30.4476 23.8733 30.4476H12.1203C11.8497 30.4476 11.7129 30.4476 11.6437 30.3792ZM23.6676 15.7306L17.8976 25.4967L17.8572 25.5775L17.556 26.099L17.6038 26.1431H24.0863C24.303 26.1467 24.303 26.0403 24.303 25.8823V25.8823V15.6499C24.303 15.547 24.2957 15.3891 24.1745 15.3817C24.1556 15.3806 24.1358 15.3784 24.1155 15.3761C24.0057 15.3638 23.8816 15.3499 23.8072 15.4956C23.7755 15.5589 23.737 15.62 23.6989 15.6807C23.6884 15.6973 23.6779 15.714 23.6676 15.7306Z" fill="white"/>
</svg>
