<svg width="24" height="24" viewBox="0 0 24 24" fill="none" xmlns="http://www.w3.org/2000/svg">
<path fill-rule="evenodd" clip-rule="evenodd" d="M4 6C4 4.34315 5.34315 3 7 3H11C12.6569 3 14 4.34315 14 6V8H12V6C12 5.44772 11.5523 5 11 5H7C6.44772 5 6 5.44772 6 6V18C6 18.5523 6.44772 19 7 19H11C11.5523 19 12 18.5523 12 18V16.5H14V18C14 19.6569 12.6569 21 11 21H7C5.34315 21 4 19.6569 4 18V6ZM15.2929 8.29289C15.6834 7.90237 16.3166 7.90237 16.7071 8.29289L19.7071 11.2929C20.0976 11.6834 20.0976 12.3166 19.7071 12.7071L16.7071 15.7071C16.3166 16.0976 15.6834 16.0976 15.2929 15.7071C14.9024 15.3166 14.9024 14.6834 15.2929 14.2929L16.5858 13H9C8.44772 13 8 12.5523 8 12C8 11.4477 8.44772 11 9 11H16.5858L15.2929 9.70711C14.9024 9.31658 14.9024 8.68342 15.2929 8.29289Z" fill="white"/>
</svg>
