<svg width="32" height="32" viewBox="0 0 32 32" fill="none" xmlns="http://www.w3.org/2000/svg">
<path fill-rule="evenodd" clip-rule="evenodd" d="M4.68231 4.69098C7.68048 1.69052 11.7473 0.00324535 15.989 0H16.0012C18.1024 0 20.183 0.413902 22.1243 1.21807C24.0655 2.02224 25.8293 3.20091 27.3149 4.6868C28.8006 6.17268 29.979 7.93667 30.7829 9.87801C31.5867 11.8194 32.0003 13.9 32 16.0012C32 20.2444 30.3144 24.3137 27.3141 27.3141C24.3137 30.3144 20.2444 32 16.0012 32C11.7579 32 7.68826 30.3145 4.68751 27.3142C1.68677 24.3139 0.000649329 20.2446 0 16.0012C0 11.7596 1.68415 7.69144 4.68231 4.69098ZM10.6169 3.25656C8.97362 3.94987 7.48086 4.95614 6.22174 6.2193C4.95725 7.48254 3.9502 8.97939 3.25656 10.6267C2.53438 12.3305 2.16457 14.1629 2.1694 16.0135C2.16457 17.864 2.53438 19.6964 3.25656 21.4003C3.9502 23.0476 4.95725 24.5444 6.22174 25.8076C7.48086 27.0708 8.97362 28.0771 10.6169 28.7704C12.3209 29.4921 14.1532 29.8619 16.0037 29.8575C17.8542 29.8616 19.6864 29.4918 21.3905 28.7704C23.0374 28.0772 24.5342 27.0711 25.7978 25.8076C27.0624 24.5449 28.0687 23.0479 28.7606 21.4003C29.4828 19.6964 29.8526 17.864 29.8477 16.0135C29.8526 14.1629 29.4828 12.3305 28.7606 10.6267C28.0687 8.97903 27.0624 7.482 25.7978 6.2193C24.5342 4.95588 23.0374 3.9497 21.3905 3.25656C19.6864 2.53509 17.8542 2.16533 16.0037 2.16942C14.1532 2.16506 12.3209 2.53484 10.6169 3.25656ZM7.76248 20.2528C7.71536 20.2062 7.71536 20.112 7.71536 19.9213L7.7325 19.8871C7.7347 19.7278 7.73394 19.5683 7.73318 19.4087C7.73055 18.8569 7.72792 18.3044 7.84758 17.7593C7.96266 17.2871 8.15636 16.8376 8.42054 16.4297C10.048 13.7983 11.673 11.1662 13.2956 8.53317C13.6922 7.89165 14.1771 7.36521 14.963 7.23299C15.2117 7.19459 15.4631 7.17575 15.7147 7.17666H19.8773C20.0731 7.17666 20.1221 7.23298 20.1221 7.43621V12.2819V17.1275C20.1221 17.3504 20.1858 17.3944 20.3964 17.3944C20.6412 17.3944 20.8861 17.3958 21.1309 17.3972C21.6206 17.3999 22.1103 17.4026 22.6 17.3944C22.7959 17.3798 22.8449 17.4434 22.8449 17.6246C22.8351 18.4408 22.8351 19.257 22.8449 20.0731C22.8473 20.2543 22.7861 20.2862 22.6221 20.2862H20.3572C20.1711 20.2862 20.127 20.3498 20.127 20.531V24.2038C20.127 24.4046 20.0756 24.4487 19.8822 24.4487C18.7542 24.4389 17.6254 24.4389 16.4958 24.4487C16.2755 24.4511 16.2069 24.4144 16.2069 24.1696V20.602C16.2094 20.3719 16.1604 20.2984 15.9155 20.2984H8.08019C7.89978 20.2984 7.80858 20.2984 7.76248 20.2528ZM15.7784 10.4871L11.9317 16.9978L11.9048 17.0516L11.704 17.3993L11.7359 17.4287H16.0575C16.202 17.4312 16.202 17.3602 16.202 17.2549V17.2549V10.4332C16.202 10.3647 16.1971 10.2594 16.1163 10.2545C16.1037 10.2537 16.0905 10.2522 16.077 10.2507C16.0038 10.2425 15.9211 10.2333 15.8715 10.3304C15.8503 10.3726 15.8247 10.4134 15.7993 10.4538C15.7923 10.4649 15.7853 10.476 15.7784 10.4871Z" fill="white"/>
</svg>
