<svg width="24" height="24" viewBox="0 0 24 24" fill="none" xmlns="http://www.w3.org/2000/svg">
<path d="M14.6221 11.3211L11.0861 9.11942C10.9771 9.04438 10.8513 9.00315 10.7222 9.00017C10.5931 8.9972 10.4658 9.03259 10.354 9.10254C10.2421 9.17248 10.1501 9.2743 10.0878 9.39695C10.0255 9.51961 9.99533 9.65842 10.0006 9.79834V14.2017C9.99533 14.3416 10.0255 14.4804 10.0878 14.603C10.1501 14.7257 10.2421 14.8275 10.354 14.8974C10.4658 14.9674 10.5931 15.0028 10.7222 14.9998C10.8513 14.9969 10.9771 14.9556 11.0861 14.8806L14.6221 12.6789C14.7361 12.6138 14.8316 12.5162 14.8982 12.3965C14.9648 12.2769 15 12.1398 15 12C15 11.8602 14.9648 11.7231 14.8982 11.6035C14.8316 11.4838 14.7361 11.3862 14.6221 11.3211Z" fill="white"/>
<circle cx="12" cy="12" r="8" stroke="white" stroke-width="2"/>
</svg>
