<svg width="18" height="12" viewBox="0 0 18 12" fill="none" xmlns="http://www.w3.org/2000/svg">
<path fill-rule="evenodd" clip-rule="evenodd" d="M16.6666 0.666016H15.6666C15.1143 0.666016 14.6666 1.11373 14.6666 1.66602V10.3327C14.6666 10.885 15.1143 11.3327 15.6666 11.3327H16.6666C17.2189 11.3327 17.6666 10.885 17.6666 10.3327V1.66602C17.6666 1.11373 17.2189 0.666016 16.6666 0.666016ZM11 2.99935H12C12.5523 2.99935 13 3.44706 13 3.99935V10.3327C13 10.885 12.5523 11.3327 12 11.3327H11C10.4477 11.3327 9.99997 10.885 9.99997 10.3327V3.99935C9.99997 3.44706 10.4477 2.99935 11 2.99935ZM7.33328 5.33268H6.33328C5.781 5.33268 5.33328 5.7804 5.33328 6.33268V10.3327C5.33328 10.885 5.781 11.3327 6.33328 11.3327H7.33328C7.88557 11.3327 8.33328 10.885 8.33328 10.3327V6.33268C8.33328 5.7804 7.88557 5.33268 7.33328 5.33268ZM2.66663 7.33268H1.66663C1.11434 7.33268 0.666626 7.7804 0.666626 8.33268V10.3327C0.666626 10.885 1.11434 11.3327 1.66663 11.3327H2.66663C3.21891 11.3327 3.66663 10.885 3.66663 10.3327V8.33268C3.66663 7.7804 3.21891 7.33268 2.66663 7.33268Z" fill="white"/>
</svg>
