<svg width="24" height="24" viewBox="0 0 24 24" fill="none" xmlns="http://www.w3.org/2000/svg">
<path fill-rule="evenodd" clip-rule="evenodd" d="M20.9223 3.99818C20.9223 3.69246 20.7824 3.40353 20.5426 3.21387C20.3029 3.02421 19.9895 2.95465 19.692 3.02505L9.72242 5.38431C9.2713 5.49106 8.9527 5.89386 8.9527 6.35743V14.306C8.0786 13.9138 7.03115 13.8361 6.05836 14.097C4.10073 14.622 2.56623 16.4858 3.10734 18.5071C3.64844 20.5283 5.90845 21.3745 7.86607 20.8495C9.57379 20.3915 10.9595 18.9147 10.9263 17.2034C10.9436 17.1297 10.9527 17.053 10.9527 16.9741V7.1484L18.9223 5.26244V12.9556C18.0694 12.6018 17.065 12.5397 16.1297 12.7906C14.1721 13.3158 12.6375 15.1798 13.1785 17.2011C13.7195 19.2224 15.9793 20.0684 17.9369 19.5433C19.8782 19.0225 21.4036 17.185 20.9012 15.1831C20.915 15.1169 20.9223 15.0482 20.9223 14.9778V3.99818ZM16.6468 14.7226C15.4133 15.0535 14.9386 16.0418 15.1102 16.6829C15.2818 17.3239 16.1864 17.9422 17.4198 17.6113C18.6533 17.2804 19.128 16.2921 18.9564 15.651C18.7848 15.0099 17.8802 14.3917 16.6468 14.7226ZM6.57557 16.0289C5.34208 16.3597 4.86745 17.3479 5.03907 17.989C5.21069 18.6301 6.11538 19.2484 7.34887 18.9175C8.58236 18.5867 9.05698 17.5985 8.88536 16.9575C8.71374 16.3164 7.80905 15.6981 6.57557 16.0289Z" fill="#FFFF00"/>
</svg>
