<svg width="16" height="16" viewBox="0 0 16 16" fill="none" xmlns="http://www.w3.org/2000/svg">
<path fill-rule="evenodd" clip-rule="evenodd" d="M1.6 8C1.6 11.5346 4.46538 14.4 8 14.4C11.5346 14.4 14.4 11.5346 14.4 8C14.4 4.46538 11.5346 1.6 8 1.6C4.46538 1.6 1.6 4.46538 1.6 8ZM8 16C3.58172 16 0 12.4183 0 8C0 3.58172 3.58172 0 8 0C12.4183 0 16 3.58172 16 8C16 12.4183 12.4183 16 8 16ZM12 8C12 8.44183 11.6418 8.8 11.2 8.8H4.8C4.35817 8.8 4 8.44183 4 8C4 7.55817 4.35817 7.2 4.8 7.2H11.2C11.6418 7.2 12 7.55817 12 8Z" fill="#999999"/>
</svg>
