<svg width="24" height="24" viewBox="0 0 24 24" fill="none" xmlns="http://www.w3.org/2000/svg">
<path fill-rule="evenodd" clip-rule="evenodd" d="M11.9999 2.33337C6.66117 2.33337 2.33325 6.66129 2.33325 12C2.33325 17.3388 6.66117 21.6667 11.9999 21.6667C17.3387 21.6667 21.6666 17.3388 21.6666 12C21.6666 6.66129 17.3387 2.33337 11.9999 2.33337ZM0.333252 12C0.333252 5.55672 5.5566 0.333374 11.9999 0.333374C18.4432 0.333374 23.6666 5.55672 23.6666 12C23.6666 18.4434 18.4432 23.6667 11.9999 23.6667C5.5566 23.6667 0.333252 18.4434 0.333252 12ZM11.9999 5.66671C12.5522 5.66671 12.9999 6.11442 12.9999 6.66671V11H17.3333C17.8855 11 18.3333 11.4478 18.3333 12C18.3333 12.5523 17.8855 13 17.3333 13H12.9999V17.3334C12.9999 17.8857 12.5522 18.3334 11.9999 18.3334C11.4476 18.3334 10.9999 17.8857 10.9999 17.3334V13H6.66659C6.1143 13 5.66659 12.5523 5.66659 12C5.66659 11.4478 6.1143 11 6.66659 11H10.9999V6.66671C10.9999 6.11442 11.4476 5.66671 11.9999 5.66671Z" fill="#FFFF00"/>
</svg>
