<svg width="40" height="40" viewBox="0 0 40 40" fill="none" xmlns="http://www.w3.org/2000/svg">
<rect width="40" height="40" rx="20" fill="#333333"/>
<path fill-rule="evenodd" clip-rule="evenodd" d="M12.4381 20.3447C12.3453 20.2185 12.2631 20.1028 12.1921 20C12.2631 19.8972 12.3453 19.7815 12.4381 19.6553C12.8275 19.1264 13.3998 18.4224 14.13 17.7214C15.6094 16.3012 17.6225 15 20 15C22.3775 15 24.3906 16.3012 25.87 17.7214C26.6002 18.4224 27.1725 19.1264 27.5619 19.6553C27.6547 19.7815 27.7369 19.8972 27.8079 20C27.7369 20.1028 27.6547 20.2185 27.5619 20.3447C27.1725 20.8736 26.6002 21.5776 25.87 22.2786C24.3906 23.6988 22.3775 25 20 25C17.6225 25 15.6094 23.6988 14.13 22.2786C13.3998 21.5776 12.8275 20.8736 12.4381 20.3447ZM29.8634 19.4955C29.8636 19.4958 29.8638 19.4961 29 20C29.8638 20.5039 29.8636 20.5042 29.8634 20.5045L29.8629 20.5053L29.8618 20.5073L29.8585 20.5129L29.848 20.5305C29.8393 20.5451 29.8271 20.5652 29.8116 20.5906C29.7805 20.6412 29.7358 20.7127 29.6778 20.8021C29.5619 20.9807 29.3925 21.2315 29.1725 21.5303C28.7338 22.1264 28.0873 22.9224 27.255 23.7214C25.6094 25.3012 23.1225 27 20 27C16.8775 27 14.3906 25.3012 12.745 23.7214C11.9127 22.9224 11.2662 22.1264 10.8275 21.5303C10.6075 21.2315 10.4381 20.9807 10.3222 20.8021C10.2642 20.7127 10.2195 20.6412 10.1884 20.5906C10.1729 20.5652 10.1607 20.5451 10.152 20.5305L10.1415 20.5129L10.1382 20.5073L10.1371 20.5053L10.1366 20.5045C10.1364 20.5042 10.1362 20.5039 11 20C10.1362 19.4961 10.1364 19.4958 10.1366 19.4955L10.1371 19.4947L10.1382 19.4927L10.1415 19.4871L10.152 19.4695C10.1607 19.4549 10.1729 19.4348 10.1884 19.4094C10.2195 19.3588 10.2642 19.2873 10.3222 19.1979C10.4381 19.0193 10.6075 18.7685 10.8275 18.4697C11.2662 17.8736 11.9127 17.0776 12.745 16.2786C14.3906 14.6988 16.8775 13 20 13C23.1225 13 25.6094 14.6988 27.255 16.2786C28.0873 17.0776 28.7338 17.8736 29.1725 18.4697C29.3925 18.7685 29.5619 19.0193 29.6778 19.1979C29.7358 19.2873 29.7805 19.3588 29.8116 19.4094C29.8271 19.4348 29.8393 19.4549 29.848 19.4695L29.8585 19.4871L29.8618 19.4927L29.8629 19.4947L29.8634 19.4955ZM29 20L29.8638 19.4961C30.0454 19.8075 30.0454 20.1925 29.8638 20.5039L29 20ZM10.1362 19.4961L11 20L10.1362 20.5039C9.95459 20.1925 9.95459 19.8075 10.1362 19.4961ZM20 23C21.6569 23 23 21.6569 23 20C23 18.3431 21.6569 17 20 17C18.3431 17 17 18.3431 17 20C17 21.6569 18.3431 23 20 23Z" fill="#FFFF00"/>
</svg>
