<svg width="16" height="16" viewBox="0 0 16 16" fill="none" xmlns="http://www.w3.org/2000/svg">
<path fill-rule="evenodd" clip-rule="evenodd" d="M8.00004 2.66666C5.05452 2.66666 2.66671 5.05448 2.66671 8C2.66671 10.9455 5.05452 13.3333 8.00004 13.3333C10.9456 13.3333 13.3334 10.9455 13.3334 8C13.3334 5.05448 10.9456 2.66666 8.00004 2.66666ZM1.33337 8C1.33337 4.3181 4.31814 1.33333 8.00004 1.33333C11.6819 1.33333 14.6667 4.3181 14.6667 8C14.6667 11.6819 11.6819 14.6667 8.00004 14.6667C4.31814 14.6667 1.33337 11.6819 1.33337 8ZM8.00004 5.33333C7.63185 5.33333 7.33337 5.63181 7.33337 6V6.33333C7.33337 6.70152 7.0349 7 6.66671 7C6.29852 7 6.00004 6.70152 6.00004 6.33333V6C6.00004 4.89543 6.89547 3.99999 8.00004 3.99999C9.10461 3.99999 10 4.89543 10 6V7.09999C10 7.91962 9.43116 8.60637 8.66671 8.78695V9.33333C8.66671 9.70152 8.36823 10 8.00004 10C7.63185 10 7.33337 9.70152 7.33337 9.33333V8.43333C7.33337 7.91786 7.75124 7.5 8.26671 7.5C8.48762 7.5 8.66671 7.32091 8.66671 7.09999V6C8.66671 5.63181 8.36823 5.33333 8.00004 5.33333ZM8.00004 12C8.36823 12 8.66671 11.7015 8.66671 11.3333C8.66671 10.9651 8.36823 10.6667 8.00004 10.6667C7.63185 10.6667 7.33337 10.9651 7.33337 11.3333C7.33337 11.7015 7.63185 12 8.00004 12Z" fill="#FFFF00"/>
</svg>