<svg width="20" height="18" viewBox="0 0 20 20" fill="none" xmlns="http://www.w3.org/2000/svg">
<path fill-rule="evenodd" clip-rule="evenodd" d="M10 2C5.58172 2 2 5.58172 2 10C2 14.4183 5.58172 18 10 18C14.4183 18 18 14.4183 18 10C18 5.58172 14.4183 2 10 2ZM0 10C0 4.47715 4.47715 0 10 0C15.5228 0 20 4.47715 20 10C20 15.5228 15.5228 20 10 20C4.47715 20 0 15.5228 0 10ZM10 6C9.44772 6 9 6.44772 9 7V7.5C9 8.05228 8.55229 8.5 8 8.5C7.44772 8.5 7 8.05228 7 7.5V7C7 5.34315 8.34315 4 10 4C11.6569 4 13 5.34315 13 7V8.65C13 9.87943 12.1467 10.9096 11 11.1804V12C11 12.5523 10.5523 13 10 13C9.44772 13 9 12.5523 9 12V10.65C9 9.8768 9.6268 9.25 10.4 9.25C10.7314 9.25 11 8.98137 11 8.65V7C11 6.44772 10.5523 6 10 6ZM10 16C10.5523 16 11 15.5523 11 15C11 14.4477 10.5523 14 10 14C9.44771 14 9 14.4477 9 15C9 15.5523 9.44771 16 10 16Z" fill="white"/>
</svg>
