<svg width="19" height="20" viewBox="0 0 19 20" fill="none" xmlns="http://www.w3.org/2000/svg">
<path d="M13.4035 1.47625C13.8341 1.5718 14.2074 1.66727 14.5 1.74728V7.25272C14.2074 7.33273 13.8341 7.4282 13.4035 7.52375C12.3139 7.76552 10.8925 8 9.5 8C8.10751 8 6.68608 7.76552 5.59653 7.52375C5.16594 7.4282 4.79256 7.33273 4.5 7.25272V1.74728C4.79256 1.66727 5.16594 1.5718 5.59653 1.47625C6.68608 1.23448 8.10751 1 9.5 1C10.8925 1 12.3139 1.23448 13.4035 1.47625Z" stroke="black" stroke-width="2"/>
<path d="M14.5 1L17.5 1V8H14.5L14.5 1Z" stroke="black" stroke-width="2"/>
<path d="M1.5 1L4.5 1V8H1.5L1.5 1Z" stroke="black" stroke-width="2"/>
<path d="M8 17.5V8H11V17.5C11 18.3284 10.3284 19 9.5 19C8.67157 19 8 18.3284 8 17.5Z" stroke="black" stroke-width="2"/>
</svg>