<svg width="32" height="32" viewBox="0 0 32 32" fill="none" xmlns="http://www.w3.org/2000/svg">
<path fill-rule="evenodd" clip-rule="evenodd" d="M20.7071 10.0411C20.3166 10.4316 19.6834 10.4316 19.2929 10.0411L17 7.7482V20.0007C17 20.5529 16.5523 21.0007 16 21.0007C15.4477 21.0007 15 20.5529 15 20.0007V7.7482L12.7071 10.0411C12.3166 10.4316 11.6834 10.4316 11.2929 10.0411C10.9024 9.65057 10.9024 9.0174 11.2929 8.62688L15.2929 4.62688C15.6834 4.23635 16.3166 4.23635 16.7071 4.62688L20.7071 8.62688C21.0977 9.0174 21.0977 9.65057 20.7071 10.0411ZM7.66669 14.6673C7.66669 14.115 7.21897 13.6673 6.66669 13.6673C6.1144 13.6673 5.66669 14.115 5.66669 14.6673V24.6673C5.66669 26.3242 7.00983 27.6673 8.66669 27.6673H23.3334C24.9896 27.6673 26.3334 26.3258 26.3334 24.6683V24.6529V24.6375V24.622V24.6064V24.5909V24.5752V24.5596V24.5438V24.5281V24.5123V24.4964V24.4806V24.4646V24.4486V24.4326V24.4166V24.4005V24.3843V24.3681V24.3519V24.3356V24.3193V24.303V24.2866V24.2701V24.2537V24.2371V24.2206V24.204V24.1873V24.1707V24.1539V24.1372V24.1204V24.1035V24.0867V24.0698V24.0528V24.0358V24.0188V24.0017V23.9846V23.9674V23.9503V23.933V23.9158V23.8985V23.8811V23.8638V23.8464V23.8289V23.8114V23.7939V23.7764V23.7588V23.7411V23.7235V23.7058V23.688V23.6703V23.6525V23.6346V23.6168V23.5989V23.5809V23.5629V23.5449V23.5269V23.5088V23.4907V23.4726V23.4544V23.4362V23.4179V23.3996V23.3813V23.363V23.3446V23.3262V23.3078V23.2893V23.2708V23.2523V23.2337V23.2151V23.1965V23.1778V23.1592V23.1404V23.1217V23.1029V23.0841V23.0653V23.0464V23.0275V23.0086V22.9897V22.9707V22.9517V22.9326V22.9136V22.8945V22.8754V22.8562V22.837V22.8178V22.7986V22.7793V22.7601V22.7407V22.7214V22.702V22.6827V22.6632V22.6438V22.6243V22.6048V22.5853V22.5658V22.5462V22.5266V22.507V22.4873V22.4677V22.448V22.4283V22.4085V22.3888V22.369V22.3492V22.3293V22.3095V22.2896V22.2697V22.2498V22.2298V22.2099V22.1899V22.1699V22.1498V22.1298V22.1097V22.0896V22.0695V22.0494V22.0292V22.009V21.9888V21.9686V21.9484V21.9281V21.9078V21.8875V21.8672V21.8469V21.8265V21.8061V21.7857V21.7653V21.7449V21.7244V21.704V21.6835V21.663V21.6425V21.6219V21.6014V21.5808V21.5602V21.5396V21.519V21.4984V21.4777V21.4571V21.4364V21.4157V21.395V21.3742V21.3535V21.3327V21.312V21.2912V21.2704V21.2496V21.2287V21.2079V21.187V21.1662V21.1453V21.1244V21.1035V21.0826V21.0616V21.0407V21.0197V20.9987V20.9778V20.9568V20.9358V20.9147V20.8937V20.8727V20.8516V20.8306V20.8095V20.7884V20.7673V20.7462V20.7251V20.704V20.6828V20.6617V20.6405V20.6194V20.5982V20.577V20.5558V20.5346V20.5134V20.4922V20.471V20.4498V20.4286V20.4073V20.3861V20.3648V20.3435V20.3223V20.301V20.2797V20.2584V20.2371V20.2158V20.1945V20.1732V20.1519V20.1306V20.1093V20.0879V20.0666V20.0452V20.0239V20.0026V19.9812V19.9598V19.9385V19.9171V19.8958V19.8744V19.853V19.8316V19.8103V19.7889V19.7675V19.7461V19.7247V19.7033V19.6819V19.6606V19.6392V19.6178V19.5964V19.575V19.5536V19.5322V19.5108V19.4894V19.468V19.4466V19.4252V19.4038V19.3824V19.361V19.3396V19.3182V19.2969V19.2755V19.2541V19.2327V19.2113V19.1899V19.1686V19.1472V19.1258V19.1044V19.0831V19.0617V19.0404V19.019V18.9977V18.9763V18.955V18.9336V18.9123V18.891V18.8696V18.8483V18.827V18.8057V18.7844V18.7631V18.7418V18.7205V18.6992V18.678V18.6567V18.6355V18.6142V18.593V18.5717V18.5505V18.5293V18.5081V18.4868V18.4656V18.4445V18.4233V18.4021V18.3809V18.3598V18.3386V18.3175V18.2964V18.2753V18.2541V18.233V18.212V18.1909V18.1698V18.1488V18.1277V18.1067V18.0856V18.0646V18.0436V18.0226V18.0017V17.9807V17.9598V17.9388V17.9179V17.897V17.8761V17.8552V17.8343V17.8134V17.7926V17.7718V17.7509V17.7301V17.7093V17.6885V17.6678V17.647V17.6263V17.6056V17.5849V17.5642V17.5435V17.5229V17.5022V17.4816V17.461V17.4404V17.4198V17.3992V17.3787V17.3582V17.3377V17.3172V17.2967V17.2762V17.2558V17.2354V17.215V17.1946V17.1742V17.1539V17.1336V17.1133V17.093V17.0727V17.0525V17.0322V17.012V16.9918V16.9717V16.9515V16.9314V16.9113V16.8912V16.8711V16.8511V16.8311V16.8111V16.7911V16.7711V16.7512V16.7313V16.7114V16.6915V16.6717V16.6519V16.6321V16.6123V16.5925V16.5728V16.5531V16.5334V16.5138V16.4942V16.4746V16.455V16.4354V16.4159V16.3964V16.3769V16.3574V16.338V16.3186V16.2992V16.2799V16.2606V16.2413V16.222V16.2028V16.1835V16.1644V16.1452V16.1261V16.107V16.0879V16.0688V16.0498V16.0308V16.0118V15.9929V15.974V15.9551V15.9363V15.9175V15.8987V15.8799V15.8612V15.8425V15.8238V15.8052V15.7866V15.768V15.7494V15.7309V15.7125V15.694V15.6756V15.6572V15.6388V15.6205V15.6022V15.584V15.5657V15.5475V15.5294V15.5113V15.4932V15.4751V15.4571V15.4391V15.4211V15.4032V15.3853V15.3675V15.3496V15.3319V15.3141V15.2964V15.2787V15.2611V15.2435V15.2259V15.2084V15.1909V15.1734V15.156V15.1386V15.1212V15.1039V15.0866V15.0694V15.0522V15.035V15.0179V15.0008V14.9838V14.9668V14.9498V14.9328V14.916V14.8991V14.8823V14.8655V14.8488V14.8321V14.8154V14.7988V14.7822V14.7657V14.7492V14.7327V14.7163V14.6999V14.6836V14.6673C26.3334 14.115 25.8856 13.6673 25.3334 13.6673C24.7811 13.6673 24.3334 14.115 24.3334 14.6673V14.6836V14.6999V14.7163V14.7327V14.7492V14.7657V14.7822V14.7988V14.8154V14.8321V14.8488V14.8655V14.8823V14.8991V14.916V14.9328V14.9498V14.9668V14.9838V15.0008V15.0179V15.035V15.0522V15.0694V15.0866V15.1039V15.1212V15.1386V15.156V15.1734V15.1909V15.2084V15.2259V15.2435V15.2611V15.2787V15.2964V15.3141V15.3319V15.3496V15.3675V15.3853V15.4032V15.4211V15.4391V15.4571V15.4751V15.4932V15.5113V15.5294V15.5475V15.5657V15.584V15.6022V15.6205V15.6388V15.6572V15.6756V15.694V15.7125V15.7309V15.7494V15.768V15.7866V15.8052V15.8238V15.8425V15.8612V15.8799V15.8987V15.9175V15.9363V15.9551V15.974V15.9929V16.0118V16.0308V16.0498V16.0688V16.0879V16.107V16.1261V16.1452V16.1644V16.1835V16.2028V16.222V16.2413V16.2606V16.2799V16.2992V16.3186V16.338V16.3574V16.3769V16.3964V16.4159V16.4354V16.455V16.4746V16.4942V16.5138V16.5334V16.5531V16.5728V16.5925V16.6123V16.6321V16.6519V16.6717V16.6915V16.7114V16.7313V16.7512V16.7711V16.7911V16.8111V16.8311V16.8511V16.8711V16.8912V16.9113V16.9314V16.9515V16.9717V16.9918V17.012V17.0322V17.0525V17.0727V17.093V17.1133V17.1336V17.1539V17.1742V17.1946V17.215V17.2354V17.2558V17.2762V17.2967V17.3172V17.3377V17.3582V17.3787V17.3992V17.4198V17.4404V17.461V17.4816V17.5022V17.5229V17.5435V17.5642V17.5849V17.6056V17.6263V17.647V17.6678V17.6885V17.7093V17.7301V17.7509V17.7718V17.7926V17.8134V17.8343V17.8552V17.8761V17.897V17.9179V17.9388V17.9598V17.9807V18.0017V18.0226V18.0436V18.0646V18.0856V18.1067V18.1277V18.1488V18.1698V18.1909V18.212V18.233V18.2541V18.2753V18.2964V18.3175V18.3386V18.3598V18.3809V18.4021V18.4233V18.4445V18.4656V18.4868V18.5081V18.5293V18.5505V18.5717V18.593V18.6142V18.6355V18.6567V18.678V18.6992V18.7205V18.7418V18.7631V18.7844V18.8057V18.827V18.8483V18.8696V18.891V18.9123V18.9336V18.955V18.9763V18.9977V19.019V19.0404V19.0617V19.0831V19.1044V19.1258V19.1472V19.1686V19.1899V19.2113V19.2327V19.2541V19.2755V19.2969V19.3182V19.3396V19.361V19.3824V19.4038V19.4252V19.4466V19.468V19.4894V19.5108V19.5322V19.5536V19.575V19.5964V19.6178V19.6392V19.6606V19.6819V19.7033V19.7247V19.7461V19.7675V19.7889V19.8103V19.8316V19.853V19.8744V19.8958V19.9171V19.9385V19.9598V19.9812V20.0026V20.0239V20.0452V20.0666V20.0879V20.1093V20.1306V20.1519V20.1732V20.1945V20.2158V20.2371V20.2584V20.2797V20.301V20.3223V20.3435V20.3648V20.3861V20.4073V20.4286V20.4498V20.471V20.4922V20.5134V20.5346V20.5558V20.577V20.5982V20.6194V20.6405V20.6617V20.6828V20.704V20.7251V20.7462V20.7673V20.7884V20.8095V20.8306V20.8516V20.8727V20.8937V20.9147V20.9358V20.9568V20.9778V20.9987V21.0197V21.0407V21.0616V21.0826V21.1035V21.1244V21.1453V21.1662V21.187V21.2079V21.2287V21.2496V21.2704V21.2912V21.312V21.3327V21.3535V21.3742V21.395V21.4157V21.4364V21.4571V21.4777V21.4984V21.519V21.5396V21.5602V21.5808V21.6014V21.6219V21.6425V21.663V21.6835V21.704V21.7244V21.7449V21.7653V21.7857V21.8061V21.8265V21.8469V21.8672V21.8875V21.9078V21.9281V21.9484V21.9686V21.9888V22.009V22.0292V22.0494V22.0695V22.0896V22.1097V22.1298V22.1498V22.1699V22.1899V22.2099V22.2298V22.2498V22.2697V22.2896V22.3095V22.3293V22.3492V22.369V22.3888V22.4085V22.4283V22.448V22.4677V22.4873V22.507V22.5266V22.5462V22.5658V22.5853V22.6048V22.6243V22.6438V22.6632V22.6827V22.702V22.7214V22.7407V22.7601V22.7793V22.7986V22.8178V22.837V22.8562V22.8754V22.8945V22.9136V22.9326V22.9517V22.9707V22.9897V23.0086V23.0275V23.0464V23.0653V23.0841V23.1029V23.1217V23.1404V23.1592V23.1778V23.1965V23.2151V23.2337V23.2523V23.2708V23.2893V23.3078V23.3262V23.3446V23.363V23.3813V23.3996V23.4179V23.4362V23.4544V23.4726V23.4907V23.5088V23.5269V23.5449V23.5629V23.5809V23.5989V23.6168V23.6346V23.6525V23.6703V23.688V23.7058V23.7235V23.7411V23.7588V23.7764V23.7939V23.8114V23.8289V23.8464V23.8638V23.8811V23.8985V23.9158V23.933V23.9503V23.9674V23.9846V24.0017V24.0188V24.0358V24.0528V24.0698V24.0867V24.1035V24.1204V24.1372V24.1539V24.1707V24.1873V24.204V24.2206V24.2371V24.2537V24.2701V24.2866V24.303V24.3193V24.3356V24.3519V24.3681V24.3843V24.4005V24.4166V24.4326V24.4486V24.4646V24.4806V24.4964V24.5123V24.5281V24.5438V24.5596V24.5752V24.5909V24.6064V24.622V24.6375V24.6529V24.6683C24.3334 25.2199 23.8863 25.6673 23.3334 25.6673H8.66669C8.1144 25.6673 7.66669 25.2196 7.66669 24.6673V14.6673Z" fill="white"/>
</svg>
