<svg width="41" height="40" viewBox="0 0 41 40" fill="none" xmlns="http://www.w3.org/2000/svg">
<rect x="0.5" width="40" height="40" rx="20" fill="#FFFF00"/>
<path fill-rule="evenodd" clip-rule="evenodd" d="M21.0476 9.17647C21.0476 8.80287 20.7616 8.5 20.4087 8.5C20.0559 8.5 19.7698 8.80287 19.7698 9.17647V9.17762V9.17876V9.17991V9.18107V9.18222V9.18338V9.18454V9.1857V9.18687V9.18804V9.18921V9.19038V9.19155V9.19273V9.19391V9.19509V9.19627V9.19746V9.19864V9.19983V9.20103V9.20222V9.20342V9.20461V9.20581V9.20702V9.20822V9.20943V9.21063V9.21185V9.21306V9.21427V9.21549V9.21671V9.21793V9.21915V9.22037V9.2216V9.22282V9.22405V9.22528V9.22651V9.22775V9.22898V9.23022V9.23146V9.2327V9.23394V9.23519V9.23643V9.23768V9.23893V9.24018V9.24143V9.24269V9.24394V9.2452V9.24646V9.24771V9.24898V9.25024V9.2515V9.25277V9.25403V9.2553V9.25657V9.25784V9.25911V9.26038V9.26166V9.26293V9.26421V9.26548V9.26676V9.26804V9.26932V9.2706V9.27189V9.27317V9.27446V9.27574V9.27703V9.27832V9.27961V9.2809V9.28219V9.28348V9.28477V9.28607V9.28736V9.28866V9.28995V9.29125V9.29255V9.29385V9.29514V9.29644V9.29775V9.29905V9.30035V9.30165V9.30295V9.30426V9.30556V9.30687V9.30817V9.30948V9.31079V9.31209V9.3134V9.31471V9.31602V9.31733V9.31864V9.31995V9.32126V9.32257V9.32388V9.32519V9.3265V9.32781V9.32913V9.33044V9.33175V9.33306V9.33438V9.33569V9.337V9.33832V9.33963V9.34094V9.34226V9.34357V9.34489V9.3462V9.34751V9.34883V9.35014V9.35145V9.35277V9.35408V9.3554V9.35671V9.35802V9.35934V9.36065V9.36196V9.36327V9.36459V9.3659V9.36721V9.36852V9.36983V9.37114V9.37245V9.37376V9.37507V9.37638V9.37769V9.379V9.38031V9.38162V9.38292V9.38423V9.38554V9.38684V9.38815V9.38945V9.39075V9.39206V9.39336V9.39466V9.39596V9.39726V9.39856V9.39986V9.40116V9.40246V9.40375V9.40505V9.40634V9.40764V9.40893V9.41022V9.41152V9.41281V9.4141V9.41538V9.41667V9.41796V9.41924V9.42053V9.42181V9.4231V9.42438V9.42566V9.42694V9.42822V9.42949V9.43077V9.43204V9.43332V9.43459V9.43586V9.43713V9.4384V9.43966V9.44093V9.44219V9.44346V9.44472V9.44598V9.44724V9.44849V9.44975V9.451V9.45226V9.45351V9.45476V9.45601V9.45725V9.4585V9.45974V9.46098V9.46222V9.46346V9.4647V9.46594V9.46717V9.4684V9.46963V9.47086V9.47208V9.47331V9.47453V9.47575V9.47697V9.47819V9.47941V9.48062V9.48183V9.48304V9.48425V9.48545V9.48666V9.48786V9.48906V9.49025V9.49145V9.49264V9.49383V9.49502V9.49621V9.49739V9.49858V9.49976V9.50093V9.50211V9.50328V9.50445V9.50562V9.50679V9.50795V9.50912V9.51028V9.51143V9.51259V9.51374V9.51489V9.51604V9.51718V9.51832V9.51946V9.5206V9.52173V9.52287V9.524V9.52512V9.52625V9.52737V9.52849V9.5296V9.53072V9.53183V9.53293V9.53404V9.53514V9.53624V9.53734V9.53843V9.53952V9.54061V9.54169V9.54278V9.54386V9.54493V9.54601V9.54708V9.54814V9.54921V9.55027V9.55133V9.55238V9.55343V9.55448V9.55553V9.55657V9.55761V9.55865V9.55968V9.56071V9.56174V9.56276V9.56378V9.5648V9.56581V9.56682V9.56783V9.56883V9.57083V9.57281V9.57478V9.57673V9.57867V9.5806V9.58251V9.5844V9.58629V9.58815V9.59001V9.59184V9.59366V9.59547V9.59726V9.59903V9.60079V9.60253V9.60426V9.60597V9.60766V9.60934V9.611V9.61264V9.61427V9.61587V9.61746V9.61904V9.62059V9.62213V9.62365V9.62515V9.62663V9.62809V9.62954V9.63097V9.63237V9.63376V9.63513V9.63648V9.63781V9.63912V9.64041V9.64168V9.64294V9.64417V9.64538V9.64657V9.64773V9.64888V9.65001V9.65111V9.6522V9.65326V9.6543V9.65532V9.65681V9.65825V9.65964V9.66097V9.66226V9.6635V9.66468V9.66581V9.66688V9.6679V9.66918V9.67036V9.67145V9.67266V9.67371V9.67476V9.67579V13.0009H12.8333C12.1276 13.0009 11.5556 13.6066 11.5556 14.3538V18.0018H10.2778C9.57208 18.0018 9 18.6076 9 19.3548V26.0034C9 26.7506 9.57208 27.3563 10.2778 27.3563H11.5556V30.1471C11.5556 30.8943 12.1276 31.5 12.8333 31.5H27.9841C28.6898 31.5 29.2619 30.8943 29.2619 30.1471V27.3563H30.7222C31.4279 27.3563 32 26.7506 32 26.0034V19.3548C32 18.6076 31.4279 18.0018 30.7222 18.0018H29.2619V14.3538C29.2619 13.6066 28.6898 13.0009 27.9841 13.0009H21.0476V9.67656V9.67546V9.67444V9.67331V9.67219V9.67118V9.67008V9.66887V9.66757V9.66653V9.66544V9.66429V9.66309V9.66184V9.66053V9.65918V9.65778V9.65632V9.65482V9.65378V9.65273V9.65166V9.65056V9.64945V9.64831V9.64715V9.64597V9.64477V9.64355V9.64231V9.64105V9.63977V9.63847V9.63715V9.63581V9.63445V9.63307V9.63167V9.63026V9.62882V9.62736V9.62589V9.6244V9.62289V9.62136V9.61982V9.61825V9.61667V9.61507V9.61345V9.61182V9.61017V9.6085V9.60682V9.60512V9.6034V9.60167V9.59991V9.59815V9.59637V9.59457V9.59275V9.59093V9.58908V9.58722V9.58535V9.58346V9.58155V9.57964V9.5777V9.57576V9.57379V9.57182V9.56983V9.56783V9.56682V9.56581V9.5648V9.56378V9.56276V9.56174V9.56071V9.55968V9.55865V9.55761V9.55657V9.55553V9.55448V9.55343V9.55238V9.55133V9.55027V9.54921V9.54814V9.54708V9.54601V9.54493V9.54386V9.54278V9.54169V9.54061V9.53952V9.53843V9.53734V9.53624V9.53514V9.53404V9.53293V9.53183V9.53072V9.5296V9.52849V9.52737V9.52625V9.52512V9.524V9.52287V9.52173V9.5206V9.51946V9.51832V9.51718V9.51604V9.51489V9.51374V9.51259V9.51143V9.51028V9.50912V9.50795V9.50679V9.50562V9.50445V9.50328V9.50211V9.50093V9.49976V9.49858V9.49739V9.49621V9.49502V9.49383V9.49264V9.49145V9.49025V9.48906V9.48786V9.48666V9.48545V9.48425V9.48304V9.48183V9.48062V9.47941V9.47819V9.47697V9.47575V9.47453V9.47331V9.47208V9.47086V9.46963V9.4684V9.46717V9.46594V9.4647V9.46346V9.46222V9.46098V9.45974V9.4585V9.45725V9.45601V9.45476V9.45351V9.45226V9.451V9.44975V9.44849V9.44724V9.44598V9.44472V9.44346V9.44219V9.44093V9.43966V9.4384V9.43713V9.43586V9.43459V9.43332V9.43204V9.43077V9.42949V9.42822V9.42694V9.42566V9.42438V9.4231V9.42181V9.42053V9.41924V9.41796V9.41667V9.41538V9.4141V9.41281V9.41152V9.41022V9.40893V9.40764V9.40634V9.40505V9.40375V9.40246V9.40116V9.39986V9.39856V9.39726V9.39596V9.39466V9.39336V9.39206V9.39075V9.38945V9.38815V9.38684V9.38554V9.38423V9.38292V9.38162V9.38031V9.379V9.37769V9.37638V9.37507V9.37376V9.37245V9.37114V9.36983V9.36852V9.36721V9.3659V9.36459V9.36327V9.36196V9.36065V9.35934V9.35802V9.35671V9.3554V9.35408V9.35277V9.35145V9.35014V9.34883V9.34751V9.3462V9.34489V9.34357V9.34226V9.34094V9.33963V9.33832V9.337V9.33569V9.33438V9.33306V9.33175V9.33044V9.32913V9.32781V9.3265V9.32519V9.32388V9.32257V9.32126V9.31995V9.31864V9.31733V9.31602V9.31471V9.3134V9.31209V9.31079V9.30948V9.30817V9.30687V9.30556V9.30426V9.30295V9.30165V9.30035V9.29905V9.29775V9.29644V9.29514V9.29385V9.29255V9.29125V9.28995V9.28866V9.28736V9.28607V9.28477V9.28348V9.28219V9.2809V9.27961V9.27832V9.27703V9.27574V9.27446V9.27317V9.27189V9.2706V9.26932V9.26804V9.26676V9.26548V9.26421V9.26293V9.26166V9.26038V9.25911V9.25784V9.25657V9.2553V9.25403V9.25277V9.2515V9.25024V9.24898V9.24771V9.24646V9.2452V9.24394V9.24269V9.24143V9.24018V9.23893V9.23768V9.23643V9.23519V9.23394V9.2327V9.23146V9.23022V9.22898V9.22775V9.22651V9.22528V9.22405V9.22282V9.2216V9.22037V9.21915V9.21793V9.21671V9.21549V9.21427V9.21306V9.21185V9.21063V9.20943V9.20822V9.20702V9.20581V9.20461V9.20342V9.20222V9.20103V9.19983V9.19864V9.19746V9.19627V9.19509V9.19391V9.19273V9.19155V9.19038V9.18921V9.18804V9.18687V9.1857V9.18454V9.18338V9.18222V9.18107V9.17991V9.17876V9.17762V9.17647ZM10.2778 19.3548L11.5556 19.3548V26.0034H10.2778V19.3548ZM30.7222 26.0034H29.2619V19.3548H30.7222V26.0034ZM12.8333 14.3538H20.4087H27.9841V18.6783V26.6799V30.1471H12.8333V26.6799V18.6783V14.3538ZM23.0556 20C23.0556 19.2528 23.6276 18.6471 24.3333 18.6471C25.039 18.6471 25.6111 19.2528 25.6111 20C25.6111 20.7472 25.039 21.3529 24.3333 21.3529C23.6276 21.3529 23.0556 20.7472 23.0556 20ZM24.3333 17.2941C22.9219 17.2941 21.7778 18.5056 21.7778 20C21.7778 21.4944 22.9219 22.7059 24.3333 22.7059C25.7447 22.7059 26.8889 21.4944 26.8889 20C26.8889 18.5056 25.7447 17.2941 24.3333 17.2941ZM16.6667 18.6471C15.961 18.6471 15.3889 19.2528 15.3889 20C15.3889 20.7472 15.961 21.3529 16.6667 21.3529C17.3724 21.3529 17.9444 20.7472 17.9444 20C17.9444 19.2528 17.3724 18.6471 16.6667 18.6471ZM14.1111 20C14.1111 18.5056 15.2553 17.2941 16.6667 17.2941C18.0781 17.2941 19.2222 18.5056 19.2222 20C19.2222 21.4944 18.0781 22.7059 16.6667 22.7059C15.2553 22.7059 14.1111 21.4944 14.1111 20ZM17.7115 24.8894C17.4391 24.6521 17.0366 24.6934 16.8123 24.9818C16.5881 25.2702 16.6271 25.6965 16.8994 25.934L17.3056 25.4118C16.8994 25.934 16.8993 25.9339 16.8994 25.934L16.9006 25.935L16.9024 25.9366L16.9083 25.9416L16.9286 25.959C16.9459 25.9737 16.9705 25.9944 17.0019 26.0203C17.0647 26.0721 17.1546 26.1448 17.2668 26.2313C17.4905 26.4037 17.8062 26.6335 18.1735 26.8625C18.8744 27.2993 19.8918 27.8163 20.8431 27.7789C21.7216 27.7445 22.6443 27.2326 23.2796 26.8094C23.6122 26.5878 23.8971 26.369 24.0988 26.2057C24.2 26.1238 24.281 26.0553 24.3375 26.0065C24.3658 25.9821 24.388 25.9625 24.4036 25.9487L24.422 25.9323L24.4273 25.9275L24.429 25.926L24.4298 25.9252C24.4299 25.9252 24.43 25.9251 24.0139 25.4118L24.4298 25.9252C24.6976 25.6819 24.7285 25.2547 24.4987 24.9712C24.2689 24.6877 23.8657 24.6551 23.5979 24.8983L23.5954 24.9006L23.5831 24.9116C23.5716 24.9218 23.5537 24.9375 23.5301 24.9579C23.4827 24.9988 23.4122 25.0585 23.3227 25.1309C23.1433 25.2762 22.8909 25.4699 22.5991 25.6643C21.9856 26.073 21.3111 26.4067 20.7958 26.4269C20.2408 26.4487 19.5012 26.1201 18.8217 25.6965C18.4989 25.4953 18.2185 25.2913 18.0187 25.1374C17.9192 25.0606 17.8405 24.9971 17.7876 24.9534C17.7611 24.9315 17.7412 24.9147 17.7283 24.9038L17.7144 24.8919L17.7115 24.8894ZM17.7115 24.8894C17.7114 24.8894 17.7116 24.8894 17.7115 24.8894L17.3056 25.4118C17.7117 24.8895 17.7116 24.8895 17.7115 24.8894Z" fill="black"/>
</svg>
