<svg width="24" height="24" viewBox="0 0 24 24" fill="none" xmlns="http://www.w3.org/2000/svg">
<path fill-rule="evenodd" clip-rule="evenodd" d="M10.2862 3.90809C11.0635 2.61645 12.9361 2.61645 13.7134 3.90809L15.6006 7.04394L19.1661 7.86972C20.6348 8.20986 21.2134 9.9908 20.2252 11.1292L17.826 13.8931L18.1425 17.5393C18.2728 19.0411 16.7578 20.1418 15.3698 19.5537L11.9998 18.126L8.62984 19.5537C7.24176 20.1418 5.72681 19.0411 5.85715 17.5393L6.17359 13.8931L3.7744 11.1292C2.78618 9.9908 3.36484 8.20986 4.83347 7.86972L8.399 7.04394L10.2862 3.90809ZM11.9998 4.93936L10.1126 8.07521C9.83337 8.53923 9.37787 8.87017 8.85026 8.99236L5.28473 9.81815L7.68392 12.582C8.03894 12.991 8.21293 13.5264 8.1661 14.066L7.84966 17.7122L11.2196 16.2845C11.7183 16.0732 12.2813 16.0732 12.78 16.2845L16.1499 17.7122L15.8335 14.066C15.7867 13.5264 15.9607 12.991 16.3157 12.582L18.7149 9.81815L15.1493 8.99236C14.6217 8.87017 14.1662 8.53923 13.887 8.07521L11.9998 4.93936Z" fill="black"/>
</svg>
