<svg width="41" height="40" viewBox="0 0 41 40" fill="none" xmlns="http://www.w3.org/2000/svg">
<rect x="0.5" width="40" height="40" rx="20" fill="#FFFF00"/>
<path fill-rule="evenodd" clip-rule="evenodd" d="M22 12C22 11.1716 21.3284 10.5 20.5 10.5C19.6716 10.5 19 11.1716 19 12V18.5H12.5C11.6716 18.5 11 19.1716 11 20C11 20.8284 11.6716 21.5 12.5 21.5H19V28C19 28.8284 19.6716 29.5 20.5 29.5C21.3284 29.5 22 28.8284 22 28V21.5H28.5C29.3284 21.5 30 20.8284 30 20C30 19.1716 29.3284 18.5 28.5 18.5H22V12Z" fill="black"/>
</svg>
