<svg width="18" height="19" viewBox="0 0 18 19" fill="none" xmlns="http://www.w3.org/2000/svg">
<path fill-rule="evenodd" clip-rule="evenodd" d="M10 2C10.5523 2 11 1.55228 11 1C11 0.447715 10.5523 0 10 0H8C7.44772 0 7 0.447715 7 1C7 1.55228 7.44772 2 8 2H10ZM2.70711 3.29289C2.31658 2.90237 1.68342 2.90237 1.29289 3.29289L0.292893 4.29289C-0.097631 4.68342 -0.097631 5.31658 0.292893 5.70711C0.683417 6.09763 1.31658 6.09763 1.70711 5.70711L2.70711 4.70711C3.09763 4.31658 3.09763 3.68342 2.70711 3.29289ZM9 5C5.68629 5 3 7.68629 3 11C3 14.3137 5.68629 17 9 17C12.3137 17 15 14.3137 15 11C15 7.68629 12.3137 5 9 5ZM1 11C1 6.58172 4.58172 3 9 3C13.4183 3 17 6.58172 17 11C17 15.4183 13.4183 19 9 19C4.58172 19 1 15.4183 1 11ZM9 7C9.55229 7 10 7.44772 10 8V10.865L11.6402 12.2318C12.0645 12.5853 12.1218 13.2159 11.7682 13.6402C11.4147 14.0645 10.7841 14.1218 10.3598 13.7682L8.35982 12.1016C8.13182 11.9116 8 11.6301 8 11.3333V8C8 7.44772 8.44771 7 9 7ZM16.7071 3.29289C16.3166 2.90237 15.6834 2.90237 15.2929 3.29289C14.9024 3.68342 14.9024 4.31658 15.2929 4.70711L16.2929 5.70711C16.6834 6.09763 17.3166 6.09763 17.7071 5.70711C18.0976 5.31658 18.0976 4.68342 17.7071 4.29289L16.7071 3.29289Z" fill="#808080"/>
</svg>
