<svg width="18" height="18" viewBox="0 0 18 18" fill="none" xmlns="http://www.w3.org/2000/svg">
<path fill-rule="evenodd" clip-rule="evenodd" d="M6 0C5.44772 0 5 0.447715 5 1V3H3H1C0.447715 3 0 3.44772 0 4C0 4.55228 0.447715 5 1 5H2.0804L3.09441 17.0836C3.13788 17.6017 3.57104 18 4.09091 18H13.9091C14.429 18 14.8621 17.6017 14.9056 17.0836L15.9196 5H17C17.5523 5 18 4.55228 18 4C18 3.44772 17.5523 3 17 3H15H13V1C13 0.447715 12.5523 0 12 0H6ZM11 3V2H7V3H11ZM6 5H4.08743L5.01051 16H12.9895L13.9126 5H12H6Z" fill="#B3B3B3"/>
</svg>
