<svg width="20" height="17" viewBox="0 0 20 17" fill="none" xmlns="http://www.w3.org/2000/svg">
<path fill-rule="evenodd" clip-rule="evenodd" d="M19 2.73134C18.3386 3.025 17.6265 3.22359 16.8796 3.31233C17.6424 2.85599 18.2277 2.1324 18.5034 1.27043C17.7892 1.69296 17 2.00035 16.1569 2.16514C15.4849 1.44789 14.5246 1 13.4617 1C11.4237 1 9.7702 2.65317 9.7702 4.6919C9.7702 4.98134 9.8019 5.26233 9.86529 5.53275C6.79609 5.37852 4.07554 3.91021 2.25304 1.67394C1.93502 2.22113 1.7533 2.85599 1.7533 3.53204C1.7533 4.81233 2.40518 5.94261 3.3962 6.60493C2.79187 6.58697 2.22134 6.41902 1.72266 6.14437V6.18979C1.72266 7.97922 2.99577 9.47183 4.68621 9.80986C4.37665 9.89648 4.05018 9.93979 3.71315 9.93979C3.47544 9.93979 3.243 9.9176 3.01796 9.87429C3.48811 11.3405 4.85102 12.4085 6.46751 12.437C5.2039 13.4278 3.61067 14.0183 1.88114 14.0183C1.5832 14.0183 1.28843 14.0014 1 13.9676C2.63444 15.0134 4.57633 15.625 6.66085 15.625C13.4543 15.625 17.168 10 17.168 5.12077C17.168 4.96021 17.1648 4.79965 17.1585 4.64225C17.8801 4.12148 18.5066 3.47183 19 2.73134Z" stroke="white" stroke-width="2" stroke-linejoin="round"/>
</svg>
