<svg width="19" height="19" viewBox="0 0 19 19" fill="none" xmlns="http://www.w3.org/2000/svg">
<path fill-rule="evenodd" clip-rule="evenodd" d="M9.89013 0C8.35588 0 7.11212 1.24375 7.11212 2.77801H9.11212C9.11212 2.34833 9.46045 2 9.89013 2H15.0021C15.5543 2 16.0021 2.44772 16.0021 3V8.11204C16.0021 8.54171 15.6537 8.89003 15.2241 8.89003V10.89C16.7583 10.89 18.0021 9.64628 18.0021 8.11204V3C18.0021 1.34314 16.6589 0 15.0021 0H9.89013ZM3.55551 6.33345C3.55551 4.7992 4.79927 3.55545 6.33352 3.55545H11.4454C13.1023 3.55545 14.4454 4.89859 14.4454 6.55545V12.0002C14.4454 13.3507 13.3507 14.4455 12.0002 14.4455V12.4455C12.2461 12.4455 12.4454 12.2461 12.4454 12.0002V6.55545C12.4454 6.00316 11.9977 5.55545 11.4454 5.55545H6.33352C5.90383 5.55545 5.55551 5.90377 5.55551 6.33345H3.55551ZM-0.000488281 10.1113C-0.000488281 8.45443 1.34266 7.11128 2.99951 7.11128H7.88945C9.5463 7.11128 10.8894 8.45443 10.8894 10.1113V15.0013C10.8894 16.6582 9.5463 18.0013 7.88945 18.0013H2.99951C1.34266 18.0013 -0.000488281 16.6582 -0.000488281 15.0013V10.1113ZM2.99951 9.11128C2.44723 9.11128 1.99951 9.559 1.99951 10.1113V15.0013C1.99951 15.5536 2.44723 16.0013 2.99951 16.0013H7.88945C8.44173 16.0013 8.88945 15.5536 8.88945 15.0013V10.1113C8.88945 9.559 8.44173 9.11128 7.88945 9.11128H2.99951Z" fill="#FFFF00"/>
</svg>
