<svg width="16" height="18" viewBox="0 0 16 18" fill="none" xmlns="http://www.w3.org/2000/svg">
<mask id="path-1-inside-1_10406_209391" fill="white">
<path fill-rule="evenodd" clip-rule="evenodd" d="M6.02384 0.998047C4.35382 0.998047 3 2.35187 3 4.02189H5C5 3.45643 5.45839 2.99805 6.02384 2.99805H9C10.6569 2.99805 12 4.34119 12 5.99805V6.11464C11.8027 6.06705 11.5966 6.04183 11.3846 6.04183H4.61538C3.17095 6.04183 2 7.21278 2 8.65722V14.3863C2 15.8307 3.17095 17.0017 4.61538 17.0017H11.3846C12.8291 17.0017 14 15.8307 14 14.3863V9.5387V8.65722V8.5387V5.99805C14 3.23662 11.7614 0.998047 9 0.998047H6.02384Z"/>
</mask>
<path d="M3 4.02189H1V6.02189H3V4.02189ZM5 4.02189V6.02189H7V4.02189H5ZM12 6.11464L11.5311 8.0589L14 8.65432V6.11464H12ZM5 4.02189C5 3.45643 5.45839 2.99805 6.02384 2.99805V-1.00195C3.24925 -1.00195 1 1.2473 1 4.02189H5ZM5 2.02189H3V6.02189H5V2.02189ZM6.02384 0.998047C4.35382 0.998047 3 2.35187 3 4.02189H7C7 4.561 6.56296 4.99805 6.02384 4.99805V0.998047ZM9 0.998047H6.02384V4.99805H9V0.998047ZM14 5.99805C14 3.23662 11.7614 0.998047 9 0.998047V4.99805C9.55228 4.99805 10 5.44576 10 5.99805H14ZM14 6.11464V5.99805H10V6.11464H14ZM11.3846 8.04183C11.4374 8.04183 11.4861 8.04806 11.5311 8.0589L12.4689 4.17038C12.1192 4.08604 11.7557 4.04183 11.3846 4.04183V8.04183ZM4.61538 8.04183H11.3846V4.04183H4.61538V8.04183ZM4 8.65721C4 8.31735 4.27552 8.04183 4.61538 8.04183V4.04183C2.06638 4.04183 0 6.10821 0 8.65721H4ZM4 14.3863V8.65721H0V14.3863H4ZM4.61538 15.0017C4.27552 15.0017 4 14.7262 4 14.3863H0C0 16.9353 2.06638 19.0017 4.61538 19.0017V15.0017ZM11.3846 15.0017H4.61538V19.0017H11.3846V15.0017ZM12 14.3863C12 14.7262 11.7245 15.0017 11.3846 15.0017V19.0017C13.9336 19.0017 16 16.9353 16 14.3863H12ZM12 9.5387V14.3863H16V9.5387H12ZM12 8.65722V9.5387H16V8.65722H12ZM12 8.5387V8.65722H16V8.5387H12ZM12 5.99805V8.5387H16V5.99805H12ZM9 2.99805C10.6569 2.99805 12 4.34119 12 5.99805H16C16 2.13206 12.866 -1.00195 9 -1.00195V2.99805ZM6.02384 2.99805H9V-1.00195H6.02384V2.99805Z" fill="white" mask="url(#path-1-inside-1_10406_209391)"/>
</svg>
