<svg width="24" height="24" viewBox="0 0 24 24" fill="none" xmlns="http://www.w3.org/2000/svg">
<path d="M20.6238 7.0706C20.4168 6.25554 19.8066 5.61365 19.0326 5.3953C17.6286 5 12 5 12 5C12 5 6.3714 5 4.9674 5.3953C4.1934 5.61365 3.5832 6.25554 3.3762 7.0706C3 8.54826 3 11.6316 3 11.6316C3 11.6316 3 14.7149 3.3762 16.1926C3.5832 17.0076 4.1934 17.6495 4.9674 17.8679C6.3714 18.2632 12 18.2632 12 18.2632C12 18.2632 17.6286 18.2632 19.0326 17.8679C19.8066 17.6495 20.4168 17.0076 20.6238 16.1926C21 14.713 21 11.6316 21 11.6316C21 11.6316 21 8.54826 20.6238 7.0706ZM10.1586 14.4288V8.8325L14.8638 11.6316L10.1586 14.4288Z" fill="white"/>
</svg>
